<svg width="136" height="136" viewBox="0 0 136 136" fill="none" xmlns="http://www.w3.org/2000/svg">
<g clip-path="url(#clip0)">
<path d="M67.7333 133.483C104.046 133.483 133.483 104.046 133.483 67.7333C133.483 31.4208 104.046 1.98358 67.7333 1.98358C31.4207 1.98358 1.98357 31.4208 1.98357 67.7333C1.98357 104.046 31.4207 133.483 67.7333 133.483Z" fill="url(#paint0_linear)"/>
<path fill-rule="evenodd" clip-rule="evenodd" d="M67.7066 11.089C96.898 11.089 120.878 33.3744 123.547 61.8668L123.42 61.8245C123.42 61.8245 122.35 61.4326 121.789 61.2207C121.228 60.9983 121.312 60.617 120.942 60.6276C120.56 60.6276 120.37 60.4793 120.37 60.4793C120.37 60.4793 120.571 60.2039 120.899 59.7167C121.228 59.2294 121.598 58.5304 121.598 58.5304C121.598 58.5304 121.408 58.8587 121.101 58.9329C120.804 59.007 119.258 59.1659 119.258 59.1659C119.258 59.1659 119.374 58.7951 119.385 58.5197C119.395 58.2444 119.406 57.7571 119.406 57.7571C119.406 57.7571 119.152 57.7677 118.876 57.9054C118.601 58.0326 117.891 58.3715 117.605 58.0855C117.319 57.8101 117.076 57.0369 117.16 56.6556C117.235 56.2849 117.446 56.2531 117.584 56.2213C117.732 56.1895 118.082 56.2001 118.082 56.2001C118.082 56.2001 117.394 55.8294 116.991 55.6599C116.589 55.4905 115.953 55.1833 115.953 54.8126C115.953 54.4418 116.07 54.3253 115.974 54.0393C115.879 53.7534 115.699 53.5733 115.699 53.5733C115.699 53.5733 115.635 53.9652 115.434 53.9652C115.222 53.9652 114.618 53.6792 114.025 53.0119C113.443 52.3446 113.379 52.2917 113.008 52.154C112.627 52.0163 111.833 51.3278 111.822 50.8088C111.812 50.2898 111.981 50.025 111.981 50.025C111.981 50.025 111.812 50.1309 111.441 50.4381C111.07 50.7452 110.911 50.7134 110.646 50.6711C110.371 50.6181 110.17 50.5122 110.233 50.0144C110.286 49.5166 110.509 48.9658 110.509 48.6692C110.509 48.3727 110.413 48.1714 110.413 48.1714C110.413 48.1714 110.35 48.8175 110.096 48.7645C109.841 48.7116 109.513 48.2667 109.344 48.0867C109.185 47.9172 109.354 48.1396 109.142 48.362C108.931 48.5845 108.666 48.8387 108.39 48.362C108.115 47.8854 107.225 45.82 107.289 45.3222C107.363 44.8243 107.278 44.5277 107.278 44.5277C107.278 44.5277 107.236 44.8455 107.13 45.1315C107.024 45.4175 107.035 45.8094 106.611 45.7564C106.198 45.7141 105.583 45.4175 105.583 45.4175C105.583 45.4175 107.628 40.8418 107.321 38.5751C107.024 36.319 106.336 33.1732 102.162 32.8236C97.989 32.4847 96.6227 32.2835 94.4302 33.1732C92.2376 34.0523 90.1192 35.9694 90.1192 35.9694C90.1192 35.9694 79.9828 32.1563 74.9939 32.3894C70.0157 32.6224 58.9895 33.2685 52.4966 35.7788C46.0037 38.2997 47.0311 37.41 44.1925 39.4754C41.3539 41.5196 40.8137 41.8586 40.5383 42.1763C40.2629 42.4835 38.4728 44.8031 37.795 45.3539C37.1065 45.8941 36.9688 46.1695 36.3544 46.3072C35.7401 46.4449 35.3588 46.519 35.327 46.7203C35.2953 46.9215 35.1894 47.4723 35.1894 47.949C35.1894 48.4256 35.0199 49.5907 34.6491 50.0356C34.2679 50.4804 33.1451 51.9209 33.1451 51.9209C33.1451 51.9209 33.3569 51.9209 33.823 51.9845C34.2996 52.0586 34.2996 52.0586 34.2996 52.0586C34.2996 52.0586 33.2722 52.8424 31.3657 54.4524C29.4485 56.0518 27.8703 57.6935 26.7158 58.5515C25.5507 59.4094 24.8622 60.0556 23.9089 60.5322C22.9556 61.0088 20.7525 62.4917 20.2759 63.0213C19.8098 63.5403 19.6298 63.5721 19.5344 63.7522C19.4285 63.9216 19.1002 64.5465 19.259 65.0444C19.4179 65.5528 20.0111 67.7877 20.1488 67.8512C20.2864 67.9148 20.2864 67.9254 20.3288 67.9678C20.3606 68.0101 20.6254 68.3067 20.7101 68.3809C20.8055 68.455 20.922 68.5292 20.9855 68.5609C21.0385 68.5821 21.0808 68.5715 21.102 68.6033C21.1233 68.635 21.155 68.6986 21.2186 68.6774C21.2715 68.6562 21.2715 68.5397 21.3033 68.4973C21.3245 68.455 21.5363 68.2961 21.7694 68.2855C22.0024 68.2749 22.0553 68.3279 22.1506 68.3597C22.246 68.3914 22.2672 68.402 22.2672 68.402C22.2672 68.402 22.2566 69.1647 22.2778 69.3765C22.299 69.5777 22.3625 69.8108 22.3731 69.9485C22.3837 70.0861 22.3625 70.6581 22.3625 70.817C22.3625 70.9653 22.3731 72.4376 22.6379 72.8401C22.9133 73.2531 23.2205 73.5921 23.2628 73.7615C23.2946 73.9417 23.7077 74.2064 23.8348 74.4818C23.9725 74.7572 24.2267 75.4139 24.6928 75.4457C25.1588 75.4669 26.4298 75.3927 26.7052 75.3822C26.97 75.3716 27.023 75.3292 27.1183 75.308C27.2242 75.2762 27.6055 75.308 27.6055 75.308C27.6055 75.308 27.7856 75.8905 27.9974 76.113C28.1987 76.3354 28.6965 76.4731 28.6965 76.4731C28.6965 76.4731 28.5694 75.8058 28.633 75.6363C28.7071 75.4669 28.6224 75.2021 29.2473 75.1385C29.8616 75.0644 35.0517 75.1703 35.0517 75.1703C35.0517 75.1703 35.4224 75.4457 35.6343 75.4457C35.8567 75.4457 37.0324 75.2021 37.3078 75.8588C37.5832 76.5049 36.6405 76.5367 36.4075 76.5684C36.1851 76.5896 35.5813 76.6532 35.4012 76.7167C35.2318 76.7803 34.914 76.8756 34.914 76.8756C34.914 76.8756 34.9458 77.1934 34.3844 77.3734C33.823 77.5641 33.6006 77.7971 33.5476 77.903C33.4947 78.009 33.1346 78.5174 33.0075 78.5915C32.8698 78.6551 32.266 78.8563 32.0542 78.8351C31.8423 78.8245 31.2809 78.6233 31.0162 78.1785C30.762 77.7336 30.7514 77.5641 30.7514 77.5641C30.7514 77.5641 30.3383 78.0937 30.476 78.5068C30.6137 78.9305 30.8043 79.3012 30.9208 79.6825C31.0374 80.0638 31.2598 80.6781 31.0374 80.837C30.8255 80.9854 30.476 81.123 30.476 81.123C30.476 81.123 30.4547 81.8327 30.4866 82.2034C30.5078 82.5635 30.5819 82.9554 30.6031 83.1249C30.6137 83.2943 30.5396 83.6121 30.6137 83.7181C30.6773 83.824 31.9801 86.3131 33.8231 87.0015C35.6661 87.6794 36.6299 88.0925 37.8586 87.8913C39.0873 87.6794 41.0362 87.0651 41.3116 87.0651C41.587 87.0651 42.0213 87.0015 42.1483 87.0651C42.286 87.1393 42.6568 87.3405 42.6568 87.3405C42.6568 87.3405 42.625 87.0863 42.5614 86.9803C42.4979 86.8638 42.4555 86.7368 42.5296 86.6308C42.5932 86.5249 42.6673 86.3978 43.2287 86.3554C43.7795 86.3131 44.9552 86.1224 45.5166 86.186C46.0779 86.2495 46.0779 86.5249 46.0779 86.5249L45.972 86.9698C45.972 86.9698 46.0038 86.8639 46.2792 86.8639C46.5546 86.8639 46.8617 87.2028 47.1689 87.7536C47.4761 88.2938 47.6562 88.6751 47.7832 88.781C47.9209 88.8764 48.0692 88.781 48.2387 88.8658C48.4082 88.9505 48.4082 88.9611 48.5035 89.0034C48.5989 89.0458 48.8107 89.12 48.8107 89.12C48.8107 89.12 48.8319 89.5754 48.9272 89.8296C49.0331 90.0838 49.1496 90.3486 49.1496 90.3486C49.1496 90.3486 49.0649 89.8614 49.2661 89.6813C49.4568 89.4907 50.0076 89.1941 50.2512 89.6707C50.4948 90.1368 50.41 90.1685 50.4206 90.3274C50.4206 90.4863 50.4101 90.4969 50.4524 90.5816C50.4948 90.6557 50.6007 90.8146 50.6007 90.8146C50.6007 90.8146 50.5478 90.4863 50.6325 90.4439C50.7279 90.4016 50.9397 90.5287 51.1092 90.6134C51.2892 90.6876 51.6812 90.6876 51.6812 90.6876C51.6812 90.6876 51.84 91.1642 51.893 91.4502C51.9353 91.7256 51.8612 91.5561 52.126 91.4925C52.3908 91.4183 52.5709 91.376 52.5709 91.376C52.5709 91.376 52.5921 91.7679 52.5815 92.2233C52.5815 92.6788 52.6133 93.4732 52.3273 93.8016C52.0519 94.1299 51.7765 94.2252 51.7765 94.2252C51.7765 94.2252 52.1578 94.31 52.5497 94.2887C52.9416 94.2675 53.5983 94.257 53.7995 94.5324C54.0114 94.8078 54.0114 95.1467 54.0114 95.1467C54.0114 95.1467 53.736 95.295 53.5135 95.3798C53.2805 95.4645 52.9839 95.5598 52.9839 95.5598C52.9839 95.5598 53.1323 95.7399 53.1852 95.7928C53.2382 95.8351 53.3971 95.8987 53.3971 95.8987V96.3118L53.2699 96.3012C53.2699 96.3012 53.3229 96.7778 53.3971 96.9261C53.4606 97.0638 53.5665 97.0532 53.5665 97.0532L54.1491 96.9897H54.488C54.488 96.9897 54.3927 97.3075 54.3079 97.4769C54.2126 97.6464 53.9796 98.1548 53.736 98.1548C53.4924 98.1548 53.111 98.1442 53.111 98.1442C53.111 98.1442 53.5029 98.3878 53.6936 98.4514C53.8843 98.5149 54.0008 98.4831 54.149 98.4302C54.2973 98.3773 54.488 98.2925 54.488 98.2925C54.488 98.2925 54.5304 98.4937 54.435 98.6738C54.3503 98.8433 54.3503 98.9704 54.3503 98.9704C54.3503 98.9704 54.3503 99.3411 54.3503 99.5424C54.3503 99.7436 54.3503 100.072 54.3503 100.072L54.6892 99.9343C54.6892 99.9343 54.8693 100.263 54.8693 100.506C54.8693 100.75 54.8269 101.227 54.8269 101.407C54.8269 101.587 54.7422 101.989 54.7316 102.434C54.721 102.868 54.8269 103.08 54.9329 103.631C55.0388 104.171 55.24 105.474 55.0388 105.675C54.8269 105.887 54.3291 106.099 54.149 106.353C53.969 106.607 53.7995 106.914 53.7995 106.914C53.7995 106.914 54.3927 106.417 54.7952 106.438C55.2082 106.47 55.9391 106.417 55.9921 106.703C56.045 106.999 56.1297 107.592 55.8544 107.73C55.579 107.868 54.1808 107.783 54.1808 107.783C54.1808 107.783 54.2126 108.344 54.5304 108.418C54.8481 108.503 55.1235 108.461 55.2718 108.821C55.4201 109.192 55.4307 109.456 55.1129 109.509C54.7846 109.562 54.3185 109.711 54.202 109.848C54.0961 109.986 53.8737 110.463 53.8737 110.463C53.8737 110.463 54.1173 110.187 54.2868 110.261C54.4456 110.336 54.7422 110.537 54.8799 110.791C55.0176 111.056 55.1023 111.151 54.8693 111.352C54.6257 111.564 54.0325 111.681 53.6936 111.924C53.3546 112.179 53.4394 112.39 53.3229 112.517C53.2064 112.645 53.6618 112.147 53.9054 112.327C54.149 112.517 54.2867 112.454 54.0113 112.793C53.736 113.132 53.5241 113.195 53.5241 113.195C53.5241 113.195 53.5877 113.259 53.736 113.28C53.8843 113.301 54.1067 113.323 54.1067 113.323C54.1067 113.323 54.0219 113.577 53.9054 113.736C53.7889 113.894 53.397 114.297 53.397 114.297C53.397 114.297 53.5241 114.435 53.683 114.509C53.8419 114.572 54.0749 114.636 54.0749 114.636C54.0749 114.636 53.9796 114.901 53.8737 115.06C53.7677 115.229 53.4288 115.557 53.4288 115.557C53.4288 115.557 53.5347 115.6 53.6618 115.759C53.7889 115.918 53.9372 116.045 54.0749 116.066C54.2126 116.076 54.435 116.119 54.435 116.119C54.435 116.119 54.3185 116.691 54.0643 116.934C53.8101 117.178 53.5347 117.506 53.5347 117.506C53.5347 117.506 53.3546 117.464 53.3123 117.528C53.2699 117.591 53.2169 117.835 53.1216 117.92C53.0263 118.004 52.4331 118.534 52.4331 118.534C52.4331 118.534 52.0624 118.905 52.0095 119.159C51.9565 119.424 51.9777 119.71 51.9777 119.71C51.9777 119.71 52.3378 118.915 52.7827 118.883C53.2169 118.852 53.2487 118.915 53.4605 118.979C53.6724 119.053 53.9372 119.498 53.9372 119.498C53.9372 119.498 53.3758 119.932 53.164 120.26C52.9521 120.589 52.7827 120.928 52.7827 120.928C52.7827 120.928 52.9203 120.97 53.0263 121.044C53.1322 121.118 53.3017 121.267 53.3017 121.267L53.3123 121.394C29.3001 115.038 11.6222 93.1661 11.6222 67.1734C11.6222 36.1919 36.7251 11.089 67.7066 11.089Z" fill="white"/>
<path fill-rule="evenodd" clip-rule="evenodd" d="M67.8125 104.902C67.8125 104.902 65.1963 103.896 63.4486 103.292C61.701 102.688 59.466 101.979 59.2224 102.159C58.9788 102.328 59.0212 102.307 58.9152 102.529C58.8199 102.762 58.6822 103.091 58.6822 103.091C58.6822 103.091 57.9196 103.027 57.7501 103.493C57.5701 103.97 57.5277 104.584 57.5595 105.739C57.5913 106.914 57.7501 109.478 57.9514 110.007C58.1527 110.547 58.5552 111.691 59.1165 112.994C59.6885 114.297 59.8898 114.975 60.091 115.61C60.2922 116.246 60.7053 116.797 61.0125 116.786C61.3091 116.765 64.3172 115.504 64.9951 115.102C65.673 114.7 67.4842 113.1 68.1833 112.221C68.8823 111.352 69.0836 111.014 69.0836 111.014C69.0836 111.014 69.4967 110.971 69.825 110.897C70.1534 110.833 71.1278 110.59 71.1278 110.59C71.1278 110.59 71.202 110.812 71.5409 110.749C71.8693 110.685 72.4518 110.484 72.4518 110.484C72.4518 110.484 72.9285 110.59 73.1085 110.547C73.2992 110.505 73.7546 110.187 73.7546 110.187C73.7546 110.187 75.6612 110.95 76.6674 111.215C77.6736 111.49 78.6269 111.755 79.4001 111.818C80.1628 111.893 80.4487 111.893 80.4487 111.893C80.4487 111.893 81.3385 111.988 81.9104 111.977C82.4824 111.967 83.8488 111.819 84.5161 111.49C85.1939 111.151 85.66 110.961 85.7977 110.749C85.9354 110.537 85.8189 109.774 85.607 109.255C85.3952 108.736 85.141 108.313 84.6538 107.794C84.1665 107.285 83.8805 105.813 83.7111 105.241C83.5522 104.669 83.0755 102.889 82.5777 101.555C82.0693 100.21 80.9678 97.8265 80.6288 97.2969C80.3004 96.7567 79.9509 96.1636 79.4531 96.1954C78.9447 96.2377 78.8176 96.5873 78.002 97.191C77.197 97.7948 75.5235 99.0658 74.5173 100.146C73.511 101.216 72.5789 102.159 72.1764 102.72C71.7739 103.292 71.1702 104.161 71.1702 104.161C71.1702 104.161 70.5347 104.235 70.0475 104.235C69.5602 104.235 68.9882 104.351 68.6387 104.468C68.2892 104.584 67.8125 104.902 67.8125 104.902L67.8125 104.902Z" fill="white"/>
<g filter="url(#filter0_f)">
<path d="M82.5399 80.1952H115.168C120.842 80.1952 125.411 84.4378 125.411 89.7077V120.007C125.411 125.277 120.842 129.52 115.168 129.52H82.5399C76.8651 129.52 72.2966 125.277 72.2966 120.007V89.7077C72.2966 84.4378 76.8651 80.1952 82.5399 80.1952Z" fill="black" fill-opacity="0.556872"/>
</g>
<path d="M88.0438 78.3562H119.851C125.383 78.3562 129.836 82.8098 129.836 88.3418V120.149C129.836 125.681 125.383 130.134 119.851 130.134H88.0438C82.5118 130.134 78.0582 125.681 78.0582 120.149V88.3418C78.0582 82.8098 82.5118 78.3562 88.0438 78.3562Z" fill="#0C1923"/>
<path d="M95.315 98.6813L104.231 93.5714C104.341 93.5085 104.465 93.4754 104.592 93.4754C104.718 93.4754 104.843 93.5085 104.952 93.5714L113.869 98.6813C113.978 98.7442 114.069 98.8346 114.133 98.9434C114.196 99.0522 114.229 99.1757 114.229 99.3014V109.521C114.229 109.777 114.092 110.013 113.869 110.141L104.952 115.251C104.843 115.314 104.718 115.347 104.592 115.347C104.465 115.347 104.341 115.314 104.231 115.251L95.315 110.141C95.2053 110.078 95.1143 109.988 95.051 109.879C94.9876 109.77 94.9543 109.647 94.9543 109.521V99.3012C94.9544 99.0454 95.0919 98.8092 95.315 98.6811" fill="#8080F2"/>
<path d="M127.707 103.574L117.042 85.1571C116.655 84.4913 115.939 84 115.165 84H93.8357C93.061 84 92.3451 84.4913 91.9577 85.1571L81.2935 103.533C80.9062 104.199 80.9062 105.04 81.2935 105.706L91.9577 123.972C92.3451 124.637 93.061 124.978 93.8357 124.978H115.164C115.939 124.978 116.655 124.648 117.042 123.982L127.706 105.686C128.094 105.02 128.094 104.24 127.706 103.574H127.707ZM118.876 112.43C118.876 112.7 118.712 112.951 118.475 113.086L104.891 120.866C104.774 120.933 104.642 120.968 104.507 120.968C104.372 120.968 104.24 120.933 104.123 120.866L90.5283 113.086C90.292 112.951 90.1266 112.701 90.1266 112.43V96.87C90.1266 96.599 90.2896 96.3488 90.5261 96.2133L104.109 88.4335C104.226 88.3668 104.359 88.3318 104.494 88.3318C104.628 88.3318 104.761 88.3668 104.878 88.4335L118.473 96.2133C118.71 96.3488 118.876 96.599 118.876 96.87V112.43V112.43Z" fill="#4B32C3"/>
</g>
<defs>
<filter id="filter0_f" x="66.3653" y="74.264" width="64.9769" height="61.1872" filterUnits="userSpaceOnUse" color-interpolation-filters="sRGB">
<feFlood flood-opacity="0" result="BackgroundImageFix"/>
<feBlend mode="normal" in="SourceGraphic" in2="BackgroundImageFix" result="shape"/>
<feGaussianBlur stdDeviation="2.96562" result="effect1_foregroundBlur"/>
</filter>
<linearGradient id="paint0_linear" x1="4.48597" y1="4.91652" x2="119.089" y2="128.801" gradientUnits="userSpaceOnUse">
<stop stop-color="#7D6ADB"/>
<stop offset="1" stop-color="#3434AC"/>
</linearGradient>
<clipPath id="clip0">
<rect width="135.467" height="135.467" fill="white"/>
</clipPath>
</defs>
</svg>
