<svg width="1417" height="498" viewBox="0 0 1417 498" fill="none" xmlns="http://www.w3.org/2000/svg">
<g clip-path="url(#clip0)">
<path d="M1416.98 0H0V497.411H1416.98V0Z" fill="#0C1923"/>
<path d="M430.217 -225.307L347.846 41.8315L136.475 -69.9341L136.674 -67.0396L78.4437 18.2339C76.8441 17.2545 75.0049 16.7361 73.1293 16.7358C70.9974 16.7354 68.9193 17.4042 67.1879 18.6479L-125.187 -186.19L-69.4821 96.2495L-72.4918 97.7163L-68.6539 99.0034L67.8597 379.14C66.6534 379.906 65.622 380.918 64.8324 382.109L-229.101 282.58L-241.144 406.511L63.3812 389.939C63.8181 391.909 64.8304 393.704 66.2894 395.097L-100.873 636.5L-105.375 638.656L130.823 698.525C130.815 698.682 130.811 698.839 130.811 698.996C130.811 700.333 131.074 701.656 131.586 702.892C132.098 704.127 132.848 705.249 133.793 706.194C134.739 707.139 135.861 707.889 137.096 708.401C138.332 708.912 139.656 709.175 140.993 709.175C142.622 709.175 144.228 708.784 145.675 708.034C147.121 707.284 148.367 706.198 149.307 704.867L351.758 795.445L414.809 623.667C415.168 623.706 415.528 623.726 415.889 623.726C417.269 623.726 418.634 623.445 419.902 622.901C421.17 622.356 422.313 621.56 423.264 620.56L621.532 733.013L621.653 734.523L836.071 661.23C836.989 662.681 838.259 663.876 839.763 664.704C841.267 665.532 842.955 665.966 844.672 665.966C846.781 665.966 848.838 665.311 850.559 664.091L996.836 795.718L1127.47 589.453C1128.54 589.822 1129.67 590.011 1130.8 590.011C1131.12 590.011 1131.44 589.996 1131.76 589.966L1200.54 834.32L1277.76 702.525C1278.56 702.72 1279.37 702.818 1280.19 702.818C1282.79 702.818 1285.29 701.824 1287.18 700.04C1289.07 698.256 1290.2 695.818 1290.35 693.224L1449.76 632.023L1322.31 406.763C1323.71 405.282 1324.64 403.414 1324.97 401.402L1603.54 386.38L1604.02 382.474L1358.19 306.05C1358.29 305.498 1358.33 304.939 1358.33 304.378C1358.33 301.761 1357.32 299.244 1355.52 297.351L1466.75 101.158L1471.49 101.72L1279.36 -77.5903L1206.22 58.2749C1205.57 58.0986 1204.9 57.9881 1204.22 57.9449L1132.55 -184.403L1000.62 18.5796C999.388 18.0701 998.067 17.808 996.733 17.8081C994.655 17.8084 992.628 18.4443 990.922 19.6304L838.274 -113.614L837.575 -111.792L633.118 -37.2622C632.247 -38.8836 630.953 -40.2388 629.374 -41.1835C627.795 -42.1283 625.989 -42.6273 624.149 -42.6274C622.099 -42.6274 620.097 -42.0086 618.405 -40.8521L430.217 -225.307ZM432.106 -217.856L615.61 -37.9888C614.539 -36.339 613.969 -34.4145 613.969 -32.4478C613.969 -32.0181 613.997 -31.5888 614.051 -31.1626L352.037 41.8198L432.106 -217.856ZM1131.17 -174.946L1200.21 58.4917C1198.88 58.9579 1197.65 59.698 1196.62 60.6645C1195.58 61.631 1194.76 62.8028 1194.2 64.105L1006.9 27.5503C1006.79 25.0117 1005.74 22.6062 1003.95 20.8062L1131.17 -174.946ZM-118.566 -173.299L64.4574 21.5835C63.4704 23.1876 62.9478 25.0341 62.9476 26.9175C62.9481 28.3963 63.2706 29.8572 63.8929 31.1987L-65.7653 94.4351L-118.566 -173.299ZM835.674 -106.842L763.635 80.8726C763.149 80.8013 762.658 80.7654 762.166 80.7651C759.871 80.7652 757.643 81.5409 755.844 82.9663L632.893 -27.2349C633.833 -28.8113 634.329 -30.6125 634.328 -32.4478C634.329 -32.7751 634.313 -33.1023 634.282 -33.4282L835.674 -106.842ZM839.957 -106.836L988.149 22.5191C987.107 24.1535 986.553 26.0515 986.553 27.9898C986.553 28.1383 986.557 28.2867 986.563 28.4351L771.217 86.2789C770.35 84.5968 769.03 83.19 767.407 82.2164L839.957 -106.836ZM1280.42 -71.1274L1459.84 96.3101L1213.7 67.1675C1213.57 65.779 1213.16 64.4316 1212.49 63.209C1211.82 61.9864 1210.91 60.9146 1209.8 60.0601L1280.42 -71.1274ZM140.957 -63.0376L345.125 44.9175L162.807 164.958C162.098 163.763 161.151 162.725 160.026 161.909C158.9 161.093 157.619 160.516 156.262 160.214L140.957 -63.0376ZM137.116 -60.5942L152.248 160.134C151.92 160.193 151.595 160.268 151.274 160.359L79.6117 34.7651C80.7679 33.8101 81.6989 32.6115 82.338 31.2548C82.9772 29.8982 83.3087 28.4171 83.309 26.9175C83.3092 24.7905 82.6433 22.7169 81.4047 20.9878L137.116 -60.5942ZM615.328 -27.3657C616.178 -25.8901 617.384 -24.6511 618.836 -23.7622L567.407 95.8511C566.746 95.7185 566.074 95.6517 565.401 95.6519C563.493 95.6519 561.623 96.1881 560.006 97.1992C558.388 98.2104 557.086 99.6557 556.25 101.371L356.442 44.7456L615.328 -27.3657ZM630.209 -24.2681L753.258 86.019C752.65 87.1185 752.251 88.3211 752.08 89.5659L575.239 103.214C574.606 100.839 573.135 98.7719 571.098 97.396L622.598 -22.3853C623.111 -22.3061 623.63 -22.2662 624.149 -22.2661C626.331 -22.2665 628.456 -22.9684 630.209 -24.2681ZM1006.29 31.5054L1193.39 68.019C1193.39 68.0471 1193.39 68.075 1193.39 68.103C1193.39 69.6238 1193.73 71.1254 1194.38 72.4973C1195.04 73.8691 1195.99 75.0765 1197.18 76.0308L1121.15 218.21C1120.19 217.919 1119.19 217.771 1118.19 217.771C1117.03 217.771 1115.88 217.969 1114.79 218.357L1003.96 35.1577C1004.99 34.1212 1005.78 32.8755 1006.29 31.5054ZM987.52 32.3179C988.198 33.7629 989.207 35.0281 990.465 36.0112L888.743 229.958C887.844 229.706 886.916 229.578 885.983 229.578C884.073 229.578 882.201 230.115 880.582 231.128L770.096 97.3276C771.553 95.5191 772.347 93.267 772.348 90.9448C772.348 90.6724 772.337 90.4 772.315 90.1284L987.52 32.3179ZM66.3051 34.4722C68.1763 36.162 70.608 37.0974 73.1293 37.0972C74.1312 37.097 75.1276 36.9489 76.0863 36.6577L147.711 162.187C146.359 163.264 145.303 164.667 144.643 166.265L-61.9567 97.0288L66.3051 34.4722ZM1000.64 37.3901L1111.35 220.41C1109.65 221.95 1108.52 224.02 1108.15 226.283L895.62 236.472C894.988 234.621 893.837 232.991 892.303 231.777L994.041 37.8062C994.918 38.0469 995.823 38.1691 996.733 38.1694C998.073 38.1692 999.4 37.9043 1000.64 37.3901ZM353.325 48.019L555.239 105.24C555.227 105.437 555.221 105.634 555.221 105.832C555.221 107.323 555.549 108.797 556.181 110.148C556.814 111.499 557.736 112.694 558.881 113.65L482.801 256.46C481.74 256.096 480.626 255.91 479.504 255.91C478.584 255.91 477.668 256.035 476.782 256.281L353.325 48.019ZM345.629 49.3726L283.596 264.802C283.187 264.753 282.776 264.728 282.364 264.728C280.168 264.728 278.031 265.438 276.272 266.751L162.84 175.291C163.751 173.731 164.231 171.958 164.231 170.152C164.231 169.721 164.203 169.29 164.149 168.863L345.629 49.3726ZM349.688 49.7319L473.205 258.093C471.258 259.627 469.937 261.819 469.491 264.257L292.133 272.039C291.389 269.506 289.69 267.362 287.395 266.058L349.688 49.7319ZM1213.28 71.146L1462.44 100.648L1352.22 295.048C1350.94 294.488 1349.55 294.199 1348.15 294.199C1346.99 294.199 1345.83 294.399 1344.73 294.791L1210.63 75.4351C1211.86 74.2506 1212.77 72.7757 1213.28 71.146ZM1207.25 77.5913L1341.3 296.847C1340.38 297.69 1339.61 298.696 1339.05 299.816L1128.35 228.5C1128.36 228.317 1128.37 228.135 1128.37 227.953C1128.37 226.453 1128.04 224.971 1127.4 223.614C1126.76 222.257 1125.83 221.058 1124.67 220.103L1200.73 77.8784C1201.65 78.1472 1202.6 78.284 1203.57 78.2847C1204.83 78.2843 1206.08 78.0491 1207.25 77.5913H1207.25ZM752.328 93.5601C752.723 95.042 753.446 96.4158 754.446 97.5789C755.445 98.7419 756.694 99.6642 758.1 100.277L709.967 332.275C708.65 332.284 707.348 332.547 706.131 333.052L572.133 113.468C573.967 111.851 575.157 109.627 575.487 107.205L752.328 93.5601ZM767.026 99.8921L877.67 233.882C876.456 235.601 875.803 237.653 875.803 239.757C875.803 240.845 875.978 241.926 876.321 242.958L718.17 336.341C717.069 334.875 715.592 333.733 713.895 333.037L762.01 101.123C762.062 101.124 762.114 101.124 762.166 101.125C763.864 101.125 765.534 100.702 767.026 99.8922V99.8921ZM-63.3356 100.785L143.871 170.224C143.886 172.308 144.54 174.336 145.744 176.037C146.948 177.737 148.645 179.027 150.606 179.732L75.5629 377.804C74.8265 377.637 74.0738 377.553 73.3187 377.552C72.744 377.553 72.1703 377.602 71.6039 377.699L-63.3356 100.785ZM568.67 115.474L702.805 335.283C701.937 336.157 701.235 337.182 700.733 338.308L489.653 266.916C489.675 266.641 489.686 266.365 489.686 266.089C489.685 264.65 489.38 263.228 488.789 261.915C488.199 260.603 487.337 259.431 486.26 258.476L562.395 115.558C563.368 115.859 564.382 116.013 565.401 116.013C566.513 116.013 567.617 115.831 568.67 115.474ZM160.178 178.283L273.598 269.732C272.672 271.3 272.184 273.087 272.184 274.908C272.184 275.831 272.309 276.75 272.557 277.64L81.1644 381.246C80.5981 380.562 79.9448 379.955 79.2211 379.441L154.662 180.314C156.661 180.194 158.579 179.487 160.178 178.283ZM1108.28 230.281C1108.7 232.081 1109.61 233.732 1110.9 235.056L1023.3 371.097C1022.21 370.711 1021.06 370.513 1019.9 370.513C1018.07 370.514 1016.27 371.007 1014.7 371.941L894.5 245.335C895.456 243.876 896.02 242.195 896.139 240.455L1108.28 230.281ZM1128.21 232.673L1337.99 303.681C1337.98 303.913 1337.97 304.146 1337.97 304.378C1337.97 306.306 1338.52 308.195 1339.55 309.824C1340.58 311.452 1342.05 312.755 1343.8 313.58L1317.77 389.992C1316.84 389.722 1315.88 389.586 1314.92 389.585C1313.02 389.586 1311.17 390.115 1309.56 391.115L1128.21 232.673ZM1125.19 235.347L1306.62 393.869C1305.93 394.848 1305.41 395.943 1305.09 397.103L1029.94 379.037C1029.57 376.768 1028.44 374.692 1026.73 373.148L1114.2 237.318C1115.46 237.855 1116.82 238.132 1118.19 238.132C1120.79 238.133 1123.3 237.136 1125.19 235.347ZM878.299 246.433C879.863 248.233 882.008 249.426 884.362 249.806L898.01 493.404C896.488 493.743 895.064 494.427 893.848 495.404L718.553 348.023C719.635 346.367 720.211 344.432 720.211 342.455C720.211 341.616 720.106 340.78 719.901 339.966L878.299 246.433ZM891.694 248.187L1011.73 374.619C1010.42 376.375 1009.72 378.505 1009.72 380.693C1009.72 382.485 1010.19 384.246 1011.09 385.796L905.745 494.787C904.609 494.054 903.34 493.555 902.01 493.318L888.36 249.656C889.55 249.371 890.68 248.873 891.694 248.187ZM469.559 268.257C470.044 270.481 471.259 272.478 473.012 273.929L384.176 425.652C383.086 425.266 381.938 425.07 380.782 425.07C379.577 425.07 378.382 425.285 377.252 425.703L289.62 282.048C291.223 280.419 292.231 278.299 292.483 276.027L469.559 268.257ZM488.547 270.765L699.854 342.234C699.852 342.307 699.85 342.381 699.85 342.455C699.85 343.894 700.156 345.318 700.747 346.631C701.337 347.944 702.2 349.117 703.278 350.072L608.696 500.214C607.682 499.887 606.624 499.72 605.559 499.72C604.569 499.721 603.585 499.865 602.637 500.15L485.438 274.365C486.744 273.427 487.81 272.194 488.547 270.765ZM476.539 275.828C477.5 276.121 478.5 276.27 479.504 276.271C480.273 276.271 481.039 276.185 481.787 276.013L599.104 502.029C598.199 502.771 597.43 503.664 596.828 504.667L390.901 436.373C390.942 436 390.963 435.626 390.963 435.251C390.963 433.829 390.665 432.421 390.088 431.121C389.51 429.82 388.667 428.655 387.612 427.701L476.539 275.828ZM274.37 281.208C275.163 282.216 276.139 283.064 277.246 283.708L188.274 490.843C187.412 490.611 186.524 490.494 185.631 490.494C183.573 490.494 181.564 491.119 179.868 492.285L82.1781 392.746C83.0432 391.217 83.498 389.49 83.4984 387.734C83.4984 386.729 83.3496 385.73 83.057 384.769L274.37 281.208ZM286.303 284.294L373.846 427.8C372.823 428.753 372.006 429.906 371.448 431.188C370.89 432.47 370.602 433.853 370.602 435.251C370.603 435.824 370.652 436.396 370.748 436.96L194.795 496.24C194.11 494.824 193.106 493.585 191.862 492.623L281.043 285.001C281.481 285.059 281.922 285.087 282.364 285.087C283.716 285.087 285.056 284.818 286.303 284.294V284.294ZM-225.609 287.986L63.3207 385.818C63.3133 385.858 63.3061 385.897 63.2992 385.937L-236.713 402.263L-225.609 287.986ZM1356.77 309.796L1592.2 382.986L1324.82 397.406C1324.3 395.229 1323.08 393.284 1321.35 391.871L1347.69 314.548C1347.85 314.556 1348 314.56 1348.15 314.56C1349.87 314.56 1351.57 314.122 1353.08 313.289C1354.58 312.456 1355.85 311.254 1356.77 309.796ZM715.741 350.884L891.284 498.472C890.773 499.411 890.413 500.424 890.217 501.474L615.233 506.73C614.654 504.962 613.601 503.387 612.19 502.175L706.739 352.087C707.798 352.449 708.91 352.634 710.03 352.634C712.065 352.635 714.055 352.026 715.741 350.884ZM1029.81 383.035L1304.83 401.093C1305.02 402.524 1305.51 403.899 1306.27 405.126L1138.19 572.835C1137.24 571.83 1136.1 571.029 1134.82 570.481C1133.55 569.934 1132.18 569.652 1130.8 569.652C1129.76 569.651 1128.72 569.81 1127.73 570.123L1026.54 388.406C1028.17 387.004 1029.31 385.124 1029.81 383.035ZM1013.75 388.802C1015.52 390.146 1017.68 390.874 1019.9 390.875C1020.97 390.874 1022.04 390.704 1023.06 390.371L1124.23 572.052C1123.27 572.865 1122.46 573.849 1121.86 574.955L910.368 504.207C910.392 503.918 910.405 503.629 910.405 503.339C910.405 501.279 909.779 499.267 908.612 497.57L1013.75 388.802ZM79.5531 395.779L177.078 495.154C176.017 496.799 175.452 498.715 175.452 500.673C175.452 501.767 175.628 502.853 175.973 503.89L-93.5934 633.013L69.6722 397.238C70.8361 397.684 72.0721 397.913 73.3187 397.914C75.576 397.913 77.7691 397.162 79.5531 395.779ZM1309 408.046C1310.09 408.828 1311.33 409.386 1312.64 409.687L1280.33 682.458C1280.28 682.458 1280.24 682.457 1280.19 682.456C1277.58 682.456 1275.07 683.457 1273.18 685.253L1140.65 582.402C1140.87 581.563 1140.98 580.699 1140.98 579.832C1140.98 578.637 1140.77 577.451 1140.36 576.33L1309 408.046ZM1319.03 409.08L1443.99 629.953L1289.76 689.167C1289.29 687.868 1288.56 686.679 1287.61 685.671C1286.67 684.663 1285.53 683.859 1284.26 683.306L1316.66 409.796C1317.47 409.655 1318.27 409.414 1319.03 409.08ZM389.688 440.183L595.485 508.437C595.414 508.921 595.379 509.41 595.379 509.9C595.379 510.843 595.51 511.782 595.768 512.689L423.905 607.269C422.968 606.073 421.776 605.102 420.416 604.427C419.056 603.752 417.562 603.39 416.043 603.367L384.774 444.617C386.86 443.727 388.589 442.167 389.688 440.183ZM372.182 440.697C373.1 442.147 374.37 443.341 375.873 444.169C377.377 444.997 379.065 445.431 380.782 445.431C380.806 445.431 380.831 445.431 380.856 445.431L412.112 604.091C410.251 604.835 408.651 606.112 407.512 607.761L195.346 503.716C195.655 502.732 195.812 501.705 195.813 500.673C195.813 500.49 195.807 500.307 195.797 500.125L372.182 440.697ZM890.272 505.478C890.569 506.863 891.153 508.171 891.985 509.318C892.817 510.465 893.879 511.425 895.104 512.138L846.397 645.753C845.827 645.655 845.25 645.605 844.672 645.605C843.226 645.605 841.796 645.914 840.478 646.51C839.161 647.106 837.985 647.976 837.03 649.062L615.399 512.517C615.555 511.929 615.657 511.327 615.705 510.72L890.272 505.478ZM193.422 507.226L405.928 611.441C405.782 612.133 405.708 612.838 405.707 613.544C405.708 614.022 405.742 614.499 405.809 614.972L150.061 694.373C149.075 692.437 147.495 690.868 145.553 689.894L185.854 510.851C187.301 510.819 188.724 510.48 190.029 509.855C191.334 509.23 192.491 508.333 193.422 507.226ZM177.965 507.373C179.038 508.6 180.391 509.552 181.909 510.148L141.69 688.839C141.458 688.823 141.225 688.814 140.993 688.814C139.064 688.814 137.174 689.363 135.545 690.395C133.916 691.428 132.613 692.902 131.789 694.646L-93.6871 637.494L177.965 507.373ZM909.248 508.052L1120.67 578.775C1120.63 579.126 1120.62 579.479 1120.62 579.832C1120.62 580.157 1120.63 580.482 1120.66 580.806L853.967 651.634C853.152 649.809 851.817 648.264 850.129 647.193L898.891 513.431C899.333 513.49 899.779 513.52 900.225 513.521C902.085 513.521 903.91 513.011 905.5 512.047C907.091 511.083 908.387 509.701 909.248 508.052L909.248 508.052ZM613.62 516.121L835.028 652.525C834.672 653.576 834.491 654.677 834.491 655.787C834.491 656.359 834.539 656.93 834.635 657.494L625.231 729.074L608.526 519.638C610.548 519.023 612.328 517.793 613.62 516.121ZM597.6 516.248C598.447 517.309 599.497 518.191 600.689 518.841C601.882 519.491 603.192 519.895 604.543 520.031L621.149 728.197L425.399 617.173C425.841 616.015 426.068 614.785 426.069 613.544C426.068 612.632 425.946 611.725 425.703 610.845L597.6 516.248ZM1121.82 584.636C1122.38 585.689 1123.13 586.635 1124.02 587.429L995.993 789.576L853.305 661.179C854.316 659.562 854.852 657.694 854.852 655.787C854.852 655.704 854.852 655.621 854.85 655.539L1121.82 584.636ZM1138.84 586.068L1270.88 688.527C1270.3 689.821 1270.01 691.221 1270.01 692.636C1270.01 694.227 1270.38 695.796 1271.1 697.217C1271.81 698.638 1272.85 699.871 1274.13 700.818L1201.85 824.185L1135.59 588.812C1136.85 588.137 1137.96 587.202 1138.84 586.068ZM407.139 618.748C408.067 620.309 409.395 621.593 410.987 622.468L349.479 790.044L150.928 701.212C151.09 700.485 151.172 699.741 151.172 698.996C151.172 698.738 151.162 698.481 151.143 698.224L407.139 618.748Z" fill="#181E24"/>
<path d="M661.022 199.952L715.846 168.296C716.521 167.907 717.286 167.701 718.064 167.701C718.843 167.701 719.608 167.907 720.282 168.296L775.107 199.952C775.781 200.342 776.341 200.902 776.73 201.576C777.119 202.25 777.324 203.015 777.325 203.794V267.107C777.325 268.69 776.478 270.155 775.107 270.948L720.282 302.604C719.608 302.994 718.843 303.199 718.064 303.199C717.286 303.199 716.521 302.994 715.846 302.604L661.022 270.948C660.348 270.559 659.788 269.999 659.399 269.324C659.009 268.65 658.804 267.885 658.804 267.107V203.793C658.805 202.208 659.651 200.745 661.022 199.951" fill="#8080F2"/>
<path d="M860.196 230.262L794.621 116.168C792.239 112.043 787.839 109 783.076 109H651.925C647.162 109 642.76 112.043 640.378 116.168L574.804 230.01C572.423 234.136 572.423 239.344 574.804 243.47L640.378 356.629C642.76 360.754 647.162 362.862 651.925 362.862H783.075C787.838 362.862 792.239 360.817 794.62 356.691L860.195 243.348C862.579 239.224 862.579 234.387 860.195 230.262H860.196ZM805.896 285.126C805.896 286.802 804.887 288.354 803.433 289.194L719.905 337.39C719.186 337.802 718.372 338.019 717.543 338.019C716.714 338.019 715.9 337.802 715.18 337.39L631.588 289.194C630.135 288.354 629.118 286.803 629.118 285.125V188.731C629.118 187.053 630.121 185.503 631.575 184.663L715.098 136.466C715.817 136.053 716.631 135.836 717.46 135.836C718.289 135.836 719.103 136.053 719.822 136.466L803.419 184.663C804.874 185.503 805.896 187.053 805.896 188.731V285.125V285.126Z" fill="#4B32C3"/>
<path fill-rule="evenodd" clip-rule="evenodd" d="M376.811 120.251C376.608 123.137 376.08 126.552 375.186 130.494C374.251 134.396 373.113 138.583 371.691 142.972C369.496 145.248 367.342 147.605 365.228 150.044C363.155 152.523 361.163 155.002 359.253 157.563C357.383 160.083 355.594 162.601 353.968 165.162C352.302 167.722 350.8 170.202 349.499 172.641C348.158 175.039 346.978 177.356 345.962 179.591C344.987 181.786 344.215 183.818 343.645 185.688C343.523 186.216 343.443 186.785 343.484 187.354C343.484 187.923 343.606 188.411 343.809 188.817C343.931 188.98 344.093 189.223 344.337 189.67C344.621 190.077 344.947 190.524 345.353 191.052C345.719 191.58 346.165 192.151 346.653 192.72C347.1 193.289 347.589 193.858 348.077 194.345C348.524 194.833 349.01 195.199 349.457 195.524C349.904 195.808 350.312 195.929 350.637 195.929C351.532 195.848 352.263 195.686 352.832 195.524C353.442 195.32 353.929 195.076 354.376 194.873C356.002 193.978 357.668 192.475 359.457 190.483C361.204 188.41 362.951 186.013 364.699 183.249C366.447 180.486 368.194 177.396 369.901 174.063C371.568 170.73 373.194 167.277 374.738 163.7C376.323 160.164 377.787 156.586 379.128 153.009C380.429 149.433 381.607 146.019 382.623 142.808C384.533 141.101 386.443 139.516 388.313 138.053C390.182 136.59 391.972 135.29 393.679 134.193C395.427 133.055 397.05 132.121 398.636 131.389C400.18 130.657 401.603 130.128 402.903 129.843C403.35 129.762 403.757 129.762 404.042 129.843C404.367 129.925 404.652 130.087 404.815 130.29C405.018 130.534 405.14 130.778 405.262 131.103C405.343 131.388 405.384 131.714 405.384 131.958C405.384 134.031 404.773 136.264 403.595 138.662C402.416 141.06 400.751 143.419 398.556 145.776C396.361 148.133 393.679 150.368 390.549 152.522C387.42 154.636 383.843 156.466 379.901 158.01C380.389 158.579 380.916 159.229 381.445 159.879C382.014 160.57 382.543 161.26 383.03 161.91C383.599 162.601 384.087 163.253 384.534 163.904C384.981 164.513 385.386 165.04 385.67 165.487C387.54 164.756 389.451 163.781 391.402 162.562C393.353 161.342 395.263 159.919 397.092 158.334C398.921 156.749 400.629 155.042 402.254 153.213C403.88 151.344 405.303 149.433 406.522 147.442C407.742 145.409 408.715 143.337 409.406 141.265C410.097 139.232 410.465 137.201 410.465 135.209V134.598C410.424 134.192 410.3 133.704 409.975 133.094C409.691 132.525 409.327 131.876 408.839 131.185C408.392 130.535 407.863 129.844 407.253 129.194C406.644 128.544 406.034 127.933 405.384 127.405C404.774 126.836 404.124 126.43 403.515 126.065C402.905 125.74 402.335 125.575 401.807 125.575C399.246 125.575 396.646 126.104 393.922 127.079C391.24 128.095 388.517 129.519 385.712 131.307C385.834 130.738 385.957 130.251 386.038 129.763C386.119 129.276 386.199 128.787 386.24 128.299C385.874 127.73 385.387 127.08 384.778 126.348C384.168 125.576 383.476 124.845 382.663 124.113C381.891 123.341 380.997 122.61 379.981 121.919C379.005 121.228 377.949 120.658 376.811 120.251H376.811ZM487.199 126.105C483.5 127.08 479.963 129.194 476.63 132.445C473.216 135.738 469.925 140.044 466.715 145.49C463.463 150.855 460.293 157.278 457.123 164.635C455.681 167.98 454.239 171.534 452.79 175.241C451.638 176.339 450.526 177.163 449.44 177.722C448.017 178.453 446.473 178.9 444.806 179.022C445.497 177.843 446.107 176.666 446.514 175.487C446.961 174.308 447.165 173.089 447.165 171.91C447.084 171.707 446.88 171.382 446.514 170.854C446.189 170.366 445.783 169.838 445.336 169.228C444.848 168.659 444.401 168.047 443.954 167.478C443.507 166.909 443.14 166.464 442.855 166.138L442.612 166.382C441.921 167.032 441.313 167.723 440.784 168.455C440.215 169.187 439.767 169.876 439.36 170.486C438.873 171.218 438.507 171.949 438.182 172.681C437.654 173.656 437.369 174.511 437.247 175.283C437.125 176.055 437.044 176.705 437.044 177.274C437.044 177.437 437.046 177.64 437.086 177.883C437.086 178.127 437.125 178.412 437.165 178.696C436.027 180.281 434.931 181.542 433.874 182.559C432.858 183.534 432.004 184.062 431.354 184.062C430.744 184.062 430.459 183.656 430.459 182.802C430.459 181.827 430.704 180.405 431.232 178.616C431.76 176.787 432.776 174.755 434.28 172.519C435.255 171.015 436.191 169.795 437.004 168.86C437.817 167.926 438.549 167.236 439.159 166.708C439.768 166.22 440.255 165.854 440.62 165.651C440.986 165.448 441.189 165.284 441.229 165.162C441.229 165.04 441.108 164.796 440.864 164.471C440.62 164.105 440.295 163.74 439.929 163.414C439.564 163.048 439.158 162.724 438.711 162.44C438.305 162.155 437.897 161.992 437.491 161.992C437.369 161.992 437.208 161.992 436.964 162.032C436.801 162.073 436.637 162.114 436.556 162.154C433.996 162.886 431.76 163.944 429.89 165.326C428.02 166.708 426.477 168.293 425.299 170.081C424.079 171.91 423.226 173.862 422.657 175.934C422.504 176.491 422.372 177.047 422.255 177.604C422.136 177.702 422.05 177.784 421.926 177.883C421.153 178.574 420.3 179.266 419.487 179.957C418.593 180.648 417.779 181.299 417.007 181.868C416.194 182.437 415.504 182.925 414.894 183.25C414.284 183.616 413.836 183.819 413.552 183.819C413.349 183.819 413.268 183.738 413.268 183.575C413.268 183.088 413.47 182.315 413.795 181.259C414.161 180.161 414.568 178.941 415.056 177.64C415.584 176.299 416.072 174.958 416.641 173.576C417.17 172.194 417.618 170.934 417.983 169.877C418.065 169.633 418.063 169.35 417.941 169.025C417.86 168.659 417.617 168.413 417.292 168.17C416.276 167.438 415.218 166.706 414.121 165.975C413.186 165.325 412.129 164.675 410.991 163.984C409.853 163.252 408.757 162.643 407.7 162.075C407.659 161.424 407.618 160.896 407.618 160.449C407.578 160.002 407.536 159.716 407.536 159.594C407.455 159.431 407.252 159.228 406.927 159.025C406.643 158.781 406.318 158.578 405.953 158.416C405.587 158.213 405.261 158.051 404.936 157.929C404.611 157.806 404.408 157.725 404.367 157.725C404.286 157.725 404.123 157.888 403.798 158.254C403.513 158.579 403.188 159.025 402.781 159.594C402.415 160.163 402.009 160.773 401.603 161.423C401.197 162.114 400.791 162.764 400.425 163.414C400.059 164.065 399.774 164.675 399.53 165.244C399.327 165.813 399.204 166.259 399.204 166.544C399.204 166.829 399.286 167.032 399.448 167.113C399.773 167.357 400.221 167.683 400.668 168.008C401.075 168.333 401.521 168.659 402.09 169.025C402.619 169.39 403.269 169.796 403.96 170.203C402.984 171.219 402.01 172.195 400.994 173.17C399.978 174.146 399.123 174.998 398.392 175.689L400.385 177.722C400.832 177.315 401.32 176.828 401.889 176.34C402.458 175.852 402.985 175.325 403.554 174.796C404.083 174.308 404.651 173.739 405.18 173.21C405.708 172.723 406.197 172.194 406.644 171.746C406.969 171.909 407.253 172.073 407.578 172.236C407.863 172.398 408.188 172.559 408.513 172.681C408.391 173.006 408.186 173.454 407.902 174.063C407.617 174.673 407.293 175.446 406.927 176.422C406.602 177.438 406.195 178.617 405.789 179.999C405.382 181.38 404.976 183.005 404.529 184.833C404.529 185.362 404.733 185.851 405.14 186.379C405.587 186.908 406.075 187.395 406.644 187.801C407.253 188.248 407.861 188.615 408.471 188.9C409.121 189.184 409.65 189.305 410.057 189.305C410.707 189.305 411.478 189.101 412.413 188.654C413.348 188.207 414.365 187.638 415.463 186.906C416.56 186.175 417.657 185.403 418.836 184.468C419.847 183.673 420.821 182.85 421.768 182.048C421.768 182.097 421.761 182.145 421.761 182.193C421.761 182.844 422.006 183.575 422.494 184.388C422.982 185.201 423.55 186.013 424.281 186.745C424.972 187.476 425.786 188.086 426.68 188.574C427.574 189.062 428.427 189.305 429.24 189.305C430.256 189.305 431.271 189.143 432.409 188.818C433.507 188.493 434.605 188.005 435.743 187.396C436.84 186.786 437.936 186.094 439.034 185.241C440.091 184.428 441.107 183.533 442.041 182.517C443.261 182.517 444.48 182.396 445.618 182.233C446.797 181.989 447.936 181.664 449.033 181.217C449.642 180.956 450.249 180.645 450.852 180.291C449.751 183.209 448.647 186.191 447.53 189.305L439.849 190.2L440.498 194.468C441.432 194.386 442.367 194.305 443.262 194.224C444.197 194.143 445.05 194.02 445.944 193.898C444.603 197.637 443.302 201.497 442.002 205.439C440.742 209.382 439.4 213.489 437.977 217.716L448.869 214.179C450.17 209.952 451.389 206.009 452.568 202.31C453.747 198.652 454.886 195.159 455.983 191.907C459.844 190.851 463.503 189.387 466.957 187.518C470.453 185.648 473.867 183.209 477.24 180.242C476.997 181.096 476.752 181.908 476.589 182.721C476.386 183.493 476.223 184.224 476.06 184.833C476.06 185.362 476.264 185.851 476.711 186.379C477.117 186.908 477.606 187.395 478.175 187.801C478.785 188.248 479.352 188.615 480.002 188.9C480.652 189.184 481.182 189.305 481.588 189.305C482.238 189.305 483.012 189.101 483.947 188.654C484.881 188.207 485.897 187.638 486.994 186.906C488.091 186.175 489.229 185.403 490.367 184.468C491.505 183.574 492.602 182.64 493.658 181.746C493.873 181.564 494.062 181.394 494.268 181.217C494.078 182.142 493.944 182.946 493.944 183.493C493.944 183.94 494.189 184.509 494.717 185.159C495.286 185.85 495.895 186.46 496.586 187.11C497.318 187.72 498.049 188.249 498.821 188.696C499.593 189.102 500.203 189.305 500.65 189.305C501.301 189.305 502.072 189.101 503.007 188.654C503.982 188.207 504.999 187.638 506.096 186.906C507.194 186.175 508.292 185.403 509.43 184.468C510.568 183.574 511.706 182.64 512.763 181.746C513.82 180.811 514.794 179.958 515.728 179.064C516.623 178.21 517.396 177.437 518.005 176.827C517.721 176.502 517.394 176.136 517.028 175.771C516.703 175.364 516.38 175.04 516.136 174.796C515.811 175.081 515.322 175.486 514.712 176.014C514.062 176.583 513.371 177.153 512.599 177.804C511.827 178.454 511.014 179.104 510.16 179.795C509.307 180.445 508.494 181.055 507.722 181.624C506.99 182.153 506.299 182.598 505.689 182.964C505.079 183.289 504.632 183.493 504.307 183.493C504.144 183.493 504.063 183.37 504.063 183.208C504.063 182.029 504.267 180.526 504.714 178.656C505.121 176.828 505.731 174.795 506.422 172.559C507.154 170.365 507.966 168.008 508.9 165.569C509.795 163.09 510.73 160.652 511.746 158.254H519.956C520.2 158.254 520.403 158.254 520.565 158.172C520.728 158.131 520.85 158.051 520.891 158.011C521.175 157.767 521.542 157.401 521.907 156.954C522.314 156.466 522.679 156.019 523.004 155.572C523.288 155.125 523.491 154.757 523.613 154.392C523.694 154.067 523.654 153.905 523.369 153.905L513.412 154.27C514.225 152.278 515.038 150.411 515.81 148.622C516.623 146.834 517.355 145.248 518.005 143.825C518.615 142.403 519.184 141.265 519.631 140.33C520.078 139.395 520.363 138.785 520.525 138.501C520.607 138.419 520.605 138.338 520.605 138.297V138.257C520.605 138.135 520.484 138.053 520.2 138.053C519.915 138.053 519.387 138.176 518.696 138.379C518.005 138.582 517.232 138.827 516.419 139.152C515.566 139.436 514.712 139.761 513.859 140.126C512.965 140.492 512.234 140.818 511.624 141.143C510.771 141.509 510.119 141.916 509.631 142.281C509.184 142.647 508.779 143.012 508.495 143.378C508.21 143.703 507.966 144.029 507.844 144.394C507.681 144.76 507.518 145.086 507.396 145.411C506.827 146.549 506.219 147.89 505.487 149.475C504.796 151.06 504.064 152.807 503.292 154.717L497.886 154.921C497.683 155.043 497.439 155.206 497.195 155.49C496.951 155.775 496.789 156.099 496.586 156.465C496.383 156.79 496.261 157.116 496.139 157.441C496.017 157.766 495.935 158.01 495.935 158.172C495.935 158.254 495.935 158.254 495.975 158.254H496.017H501.868C500.893 160.774 499.958 163.333 498.982 165.975C498.047 168.617 497.196 171.056 496.464 173.372C496.15 174.315 495.88 175.189 495.62 176.048C495.614 176.054 495.613 176.054 495.609 176.055C494.958 176.624 494.269 177.232 493.456 177.882C492.683 178.573 491.869 179.264 490.975 179.955C490.162 180.646 489.309 181.297 488.537 181.866C487.724 182.435 487.034 182.923 486.424 183.248C485.814 183.614 485.366 183.818 485.082 183.818C484.919 183.818 484.838 183.736 484.838 183.574C484.838 183.249 484.96 182.719 485.204 181.906C485.488 181.134 485.814 180.241 486.22 179.184C486.586 178.168 487.033 177.071 487.48 175.933C487.968 174.754 488.374 173.657 488.78 172.6C489.187 171.543 489.513 170.568 489.757 169.714C490.042 168.861 490.162 168.21 490.162 167.763C490.162 167.356 489.879 166.868 489.31 166.299C488.7 165.73 488.05 165.202 487.319 164.673C486.587 164.145 485.895 163.699 485.204 163.373C484.553 163.007 484.108 162.804 483.946 162.804C483.864 162.804 483.62 163.13 483.294 163.821C482.969 164.471 482.603 165.365 482.156 166.463C481.709 167.56 481.221 168.779 480.692 170.201C480.164 171.624 479.637 173.088 479.109 174.551C477.117 176.38 475.246 177.964 473.499 179.346C471.71 180.728 470.003 181.907 468.296 182.923C466.589 183.939 464.883 184.832 463.136 185.523C461.429 186.255 459.599 186.865 457.608 187.352C458.827 184.101 459.964 181.054 461.021 178.25C462.077 175.486 463.054 172.965 463.988 170.649C466.59 168.698 469.11 166.585 471.589 164.39C474.069 162.154 476.385 159.878 478.539 157.562C480.693 155.204 482.684 152.847 484.513 150.49C486.342 148.133 487.927 145.815 489.228 143.498C490.569 141.263 491.586 139.108 492.317 137.036C493.049 135.003 493.414 133.095 493.414 131.388C493.414 131.022 493.375 130.777 493.334 130.615C493.294 130.452 493.17 130.33 493.048 130.168C492.723 129.802 492.358 129.396 491.87 128.949C491.423 128.543 490.895 128.135 490.366 127.729C489.838 127.363 489.31 126.997 488.741 126.712C488.212 126.428 487.685 126.225 487.197 126.103L487.199 126.105ZM488.213 130.251C488.498 130.251 488.621 130.453 488.621 130.86C488.621 131.754 488.378 132.893 487.89 134.275C487.402 135.657 486.71 137.2 485.775 138.948C484.881 140.655 483.744 142.483 482.484 144.434C481.183 146.425 479.76 148.418 478.216 150.409C476.672 152.441 475.005 154.433 473.217 156.424C471.429 158.416 469.6 160.286 467.649 162.074C468.34 160.57 468.95 159.229 469.479 158.132C470.007 157.035 470.452 156.099 470.859 155.408C471.306 154.554 471.673 153.824 471.957 153.255C474.355 149.069 476.428 145.532 478.216 142.565C480.045 139.679 481.589 137.322 482.889 135.493C484.19 133.664 485.289 132.364 486.142 131.511C486.996 130.698 487.685 130.251 488.213 130.251ZM491.628 146.549C491.385 146.549 491.018 146.833 490.53 147.484C490.083 148.134 489.637 148.864 489.19 149.758C488.743 150.612 488.337 151.508 488.012 152.442C487.687 153.377 487.522 154.107 487.522 154.717C487.522 154.839 487.766 155.083 488.213 155.408C488.701 155.733 489.271 156.059 489.921 156.424C490.571 156.75 491.221 157.075 491.912 157.359C492.643 157.644 493.254 157.766 493.741 157.807C493.904 157.807 494.108 157.643 494.392 157.277C494.636 156.952 494.92 156.506 495.245 155.977C495.53 155.449 495.855 154.879 496.18 154.27C496.505 153.619 496.789 153.051 496.993 152.482C497.277 151.913 497.481 151.426 497.644 150.978C497.847 150.531 497.929 150.288 497.969 150.166C497.969 150.003 497.724 149.717 497.236 149.311C496.749 148.904 496.181 148.499 495.531 148.093C494.88 147.686 494.149 147.319 493.458 146.994C492.726 146.669 492.116 146.549 491.628 146.549ZM365.268 160.732C363.805 164.309 362.342 167.765 360.838 170.975C359.335 174.227 357.912 177.07 356.571 179.509C355.229 181.947 354.051 183.859 352.954 185.241C351.857 186.663 351.003 187.354 350.394 187.354C350.109 187.354 349.946 187.232 349.946 186.866C349.946 185.525 350.352 183.898 351.125 181.947C351.897 180.037 352.954 177.925 354.336 175.649C355.718 173.373 357.301 170.976 359.171 168.415C361.041 165.895 363.073 163.293 365.268 160.732Z" fill="white"/>
<path fill-rule="evenodd" clip-rule="evenodd" d="M160.911 116.483C182.876 116.483 200.92 133.251 202.928 154.69L202.833 154.659C202.833 154.659 202.028 154.364 201.606 154.204C201.183 154.037 201.247 153.75 200.968 153.758C200.681 153.758 200.538 153.646 200.538 153.646C200.538 153.646 200.689 153.439 200.936 153.073C201.183 152.706 201.462 152.18 201.462 152.18C201.462 152.18 201.319 152.427 201.087 152.483C200.864 152.539 199.701 152.658 199.701 152.658C199.701 152.658 199.788 152.379 199.796 152.172C199.804 151.965 199.812 151.598 199.812 151.598C199.812 151.598 199.621 151.605 199.414 151.71C199.207 151.805 198.673 152.06 198.457 151.845C198.242 151.638 198.059 151.056 198.123 150.769C198.178 150.49 198.338 150.466 198.442 150.442C198.553 150.419 198.816 150.426 198.816 150.426C198.816 150.426 198.298 150.147 197.995 150.019C197.692 149.891 197.214 149.66 197.214 149.382C197.214 149.103 197.302 149.015 197.23 148.8C197.159 148.585 197.023 148.449 197.023 148.449C197.023 148.449 196.975 148.744 196.824 148.744C196.664 148.744 196.21 148.529 195.764 148.027C195.325 147.524 195.278 147.485 194.999 147.381C194.712 147.277 194.114 146.759 194.106 146.369C194.098 145.978 194.226 145.779 194.226 145.779C194.226 145.779 194.098 145.859 193.819 146.09C193.54 146.321 193.421 146.297 193.221 146.265C193.014 146.225 192.863 146.146 192.911 145.771C192.95 145.396 193.118 144.982 193.118 144.759C193.118 144.536 193.046 144.384 193.046 144.384C193.046 144.384 192.998 144.87 192.807 144.831C192.616 144.791 192.369 144.456 192.241 144.321C192.122 144.193 192.249 144.36 192.09 144.528C191.93 144.695 191.731 144.886 191.524 144.528C191.317 144.169 190.647 142.615 190.695 142.24C190.751 141.866 190.687 141.643 190.687 141.643C190.687 141.643 190.655 141.882 190.575 142.097C190.496 142.312 190.504 142.607 190.185 142.567C189.874 142.535 189.412 142.312 189.412 142.312C189.412 142.312 190.95 138.869 190.719 137.164C190.496 135.466 189.978 133.099 186.837 132.836C183.697 132.581 182.669 132.429 181.019 133.099C179.37 133.76 177.776 135.203 177.776 135.203C177.776 135.203 170.148 132.334 166.395 132.509C162.649 132.684 154.352 133.171 149.466 135.059C144.581 136.956 145.354 136.287 143.218 137.841C141.082 139.379 140.676 139.634 140.468 139.873C140.261 140.104 138.914 141.85 138.404 142.264C137.886 142.671 137.783 142.878 137.32 142.982C136.858 143.085 136.571 143.141 136.547 143.292C136.523 143.444 136.444 143.858 136.444 144.217C136.444 144.576 136.316 145.452 136.037 145.787C135.75 146.122 134.905 147.206 134.905 147.206C134.905 147.206 135.065 147.206 135.415 147.253C135.774 147.309 135.774 147.309 135.774 147.309C135.774 147.309 135.001 147.899 133.566 149.111C132.124 150.314 130.936 151.549 130.068 152.195C129.191 152.841 128.673 153.327 127.956 153.685C127.238 154.044 125.581 155.16 125.222 155.558C124.871 155.949 124.736 155.973 124.664 156.108C124.584 156.236 124.337 156.706 124.457 157.08C124.576 157.463 125.023 159.145 125.126 159.193C125.23 159.241 125.23 159.248 125.262 159.28C125.286 159.312 125.485 159.535 125.549 159.591C125.62 159.647 125.708 159.703 125.756 159.727C125.796 159.743 125.828 159.734 125.843 159.758C125.859 159.782 125.883 159.83 125.931 159.814C125.971 159.797 125.971 159.711 125.995 159.679C126.011 159.647 126.17 159.527 126.345 159.519C126.521 159.512 126.561 159.551 126.632 159.575C126.704 159.599 126.72 159.607 126.72 159.607C126.72 159.607 126.712 160.181 126.728 160.34C126.744 160.492 126.792 160.667 126.8 160.771C126.808 160.874 126.792 161.305 126.792 161.424C126.792 161.536 126.8 162.644 126.999 162.947C127.206 163.257 127.437 163.512 127.469 163.64C127.493 163.776 127.804 163.975 127.9 164.182C128.003 164.389 128.195 164.883 128.545 164.907C128.896 164.924 129.852 164.867 130.06 164.859C130.259 164.852 130.299 164.819 130.37 164.803C130.45 164.78 130.737 164.803 130.737 164.803C130.737 164.803 130.872 165.242 131.032 165.409C131.183 165.576 131.558 165.68 131.558 165.68C131.558 165.68 131.462 165.178 131.51 165.051C131.566 164.923 131.502 164.724 131.972 164.676C132.435 164.62 136.34 164.7 136.34 164.7C136.34 164.7 136.619 164.907 136.778 164.907C136.945 164.907 137.83 164.724 138.037 165.218C138.245 165.704 137.535 165.728 137.36 165.752C137.193 165.769 136.738 165.815 136.603 165.863C136.475 165.911 136.236 165.983 136.236 165.983C136.236 165.983 136.26 166.222 135.838 166.358C135.415 166.501 135.248 166.676 135.208 166.756C135.168 166.836 134.897 167.218 134.802 167.274C134.698 167.322 134.244 167.473 134.084 167.457C133.925 167.45 133.502 167.298 133.303 166.963C133.112 166.629 133.104 166.501 133.104 166.501C133.104 166.501 132.793 166.9 132.897 167.21C133 167.529 133.144 167.808 133.232 168.095C133.319 168.382 133.487 168.844 133.319 168.964C133.16 169.075 132.897 169.179 132.897 169.179C132.897 169.179 132.881 169.713 132.905 169.992C132.921 170.263 132.976 170.558 132.992 170.685C133 170.813 132.945 171.052 133 171.132C133.048 171.211 134.028 173.084 135.415 173.602C136.802 174.112 137.527 174.423 138.452 174.272C139.376 174.112 140.843 173.65 141.05 173.65C141.257 173.65 141.584 173.602 141.68 173.65C141.783 173.706 142.062 173.857 142.062 173.857C142.062 173.857 142.038 173.666 141.99 173.586C141.943 173.499 141.911 173.403 141.967 173.323C142.014 173.244 142.07 173.148 142.493 173.116C142.907 173.084 143.792 172.941 144.214 172.988C144.636 173.036 144.636 173.243 144.636 173.243L144.557 173.578C144.557 173.578 144.581 173.498 144.788 173.498C144.995 173.498 145.226 173.753 145.457 174.168C145.688 174.574 145.824 174.861 145.92 174.941C146.023 175.013 146.135 174.941 146.262 175.005C146.39 175.068 146.39 175.077 146.462 175.108C146.533 175.14 146.693 175.196 146.693 175.196C146.693 175.196 146.709 175.539 146.78 175.73C146.86 175.921 146.948 176.12 146.948 176.12C146.948 176.12 146.884 175.754 147.035 175.618C147.179 175.475 147.593 175.252 147.777 175.611C147.96 175.962 147.896 175.986 147.904 176.105C147.904 176.225 147.896 176.233 147.928 176.297C147.96 176.352 148.04 176.472 148.04 176.472C148.04 176.472 148 176.225 148.063 176.193C148.135 176.161 148.295 176.257 148.422 176.321C148.558 176.377 148.852 176.377 148.852 176.377C148.852 176.377 148.972 176.735 149.012 176.95C149.044 177.158 148.988 177.03 149.187 176.982C149.386 176.926 149.522 176.895 149.522 176.895C149.522 176.895 149.538 177.19 149.53 177.532C149.53 177.875 149.554 178.473 149.339 178.72C149.131 178.967 148.924 179.039 148.924 179.039C148.924 179.039 149.211 179.102 149.506 179.086C149.801 179.069 150.295 179.063 150.446 179.27C150.606 179.477 150.606 179.732 150.606 179.732C150.606 179.732 150.399 179.843 150.231 179.907C150.056 179.971 149.833 180.043 149.833 180.043C149.833 180.043 149.944 180.178 149.984 180.218C150.024 180.25 150.144 180.298 150.144 180.298V180.609L150.048 180.602C150.048 180.602 150.088 180.96 150.144 181.072C150.191 181.175 150.271 181.167 150.271 181.167L150.709 181.12H150.964C150.964 181.12 150.893 181.359 150.829 181.486C150.757 181.614 150.582 181.996 150.399 181.996C150.215 181.996 149.928 181.989 149.928 181.989C149.928 181.989 150.223 182.173 150.367 182.22C150.51 182.268 150.598 182.244 150.709 182.204C150.821 182.164 150.965 182.1 150.965 182.1C150.965 182.1 150.996 182.251 150.925 182.387C150.861 182.514 150.861 182.61 150.861 182.61C150.861 182.61 150.861 182.889 150.861 183.04C150.861 183.192 150.861 183.439 150.861 183.439L151.116 183.335C151.116 183.335 151.251 183.582 151.251 183.766C151.251 183.949 151.22 184.308 151.22 184.443C151.22 184.578 151.156 184.881 151.148 185.216C151.14 185.543 151.22 185.702 151.299 186.117C151.379 186.523 151.531 187.504 151.379 187.655C151.22 187.814 150.845 187.974 150.71 188.165C150.574 188.356 150.447 188.587 150.447 188.587C150.447 188.587 150.893 188.213 151.196 188.229C151.507 188.253 152.057 188.212 152.096 188.428C152.136 188.651 152.2 189.098 151.993 189.201C151.786 189.305 150.733 189.241 150.733 189.241C150.733 189.241 150.757 189.663 150.996 189.719C151.236 189.783 151.443 189.751 151.554 190.022C151.666 190.301 151.674 190.5 151.435 190.54C151.188 190.58 150.837 190.692 150.749 190.795C150.67 190.899 150.502 191.257 150.502 191.257C150.502 191.257 150.686 191.05 150.813 191.106C150.933 191.162 151.156 191.313 151.259 191.505C151.363 191.704 151.427 191.775 151.251 191.927C151.068 192.086 150.622 192.174 150.367 192.357C150.112 192.549 150.176 192.708 150.088 192.804C150 192.899 150.343 192.525 150.526 192.66C150.71 192.804 150.813 192.756 150.606 193.011C150.399 193.266 150.239 193.314 150.239 193.314C150.239 193.314 150.287 193.362 150.399 193.377C150.51 193.394 150.678 193.409 150.678 193.409C150.678 193.409 150.614 193.601 150.526 193.72C150.439 193.84 150.144 194.143 150.144 194.143C150.144 194.143 150.239 194.246 150.359 194.302C150.478 194.35 150.654 194.398 150.654 194.398C150.654 194.398 150.582 194.597 150.502 194.716C150.422 194.844 150.167 195.091 150.167 195.091C150.167 195.091 150.247 195.123 150.343 195.242C150.438 195.362 150.55 195.458 150.654 195.473C150.757 195.48 150.925 195.513 150.925 195.513C150.925 195.513 150.837 195.944 150.646 196.127C150.454 196.31 150.247 196.557 150.247 196.557C150.247 196.557 150.112 196.526 150.08 196.574C150.048 196.622 150.008 196.805 149.936 196.869C149.865 196.933 149.418 197.332 149.418 197.332C149.418 197.332 149.139 197.61 149.099 197.802C149.06 198.001 149.076 198.216 149.076 198.216C149.076 198.216 149.347 197.618 149.681 197.594C150.008 197.571 150.032 197.618 150.191 197.666C150.351 197.722 150.55 198.057 150.55 198.057C150.55 198.057 150.128 198.384 149.968 198.631C149.809 198.878 149.681 199.133 149.681 199.133C149.681 199.133 149.785 199.164 149.865 199.22C149.944 199.276 150.072 199.388 150.072 199.388L150.08 199.483C132.012 194.701 118.71 178.243 118.71 158.685C118.71 135.373 137.599 116.485 160.911 116.485L160.911 116.483Z" fill="white"/>
<path fill-rule="evenodd" clip-rule="evenodd" d="M160.991 187.072C160.991 187.072 159.022 186.315 157.707 185.861C156.392 185.407 154.71 184.873 154.527 185.008C154.344 185.136 154.376 185.12 154.296 185.287C154.224 185.462 154.121 185.709 154.121 185.709C154.121 185.709 153.547 185.662 153.419 186.012C153.284 186.371 153.252 186.833 153.276 187.702C153.3 188.587 153.419 190.515 153.571 190.914C153.722 191.32 154.025 192.181 154.447 193.161C154.878 194.142 155.029 194.652 155.181 195.13C155.332 195.608 155.643 196.023 155.874 196.015C156.097 195.998 158.361 195.05 158.871 194.747C159.381 194.444 160.744 193.241 161.27 192.58C161.796 191.926 161.947 191.671 161.947 191.671C161.947 191.671 162.258 191.639 162.505 191.583C162.752 191.536 163.485 191.352 163.485 191.352C163.485 191.352 163.541 191.519 163.796 191.472C164.043 191.424 164.482 191.273 164.482 191.273C164.482 191.273 164.84 191.352 164.976 191.32C165.119 191.288 165.462 191.049 165.462 191.049C165.462 191.049 166.896 191.623 167.654 191.822C168.411 192.03 169.128 192.229 169.71 192.277C170.284 192.333 170.499 192.333 170.499 192.333C170.499 192.333 171.168 192.404 171.599 192.396C172.029 192.389 173.057 192.277 173.559 192.03C174.069 191.775 174.42 191.631 174.524 191.472C174.627 191.312 174.54 190.739 174.38 190.348C174.221 189.958 174.03 189.639 173.663 189.248C173.296 188.866 173.081 187.758 172.954 187.327C172.834 186.897 172.475 185.558 172.101 184.554C171.718 183.542 170.889 181.748 170.634 181.35C170.387 180.944 170.124 180.497 169.75 180.521C169.367 180.553 169.271 180.816 168.658 181.27C168.052 181.725 166.793 182.681 166.036 183.494C165.279 184.299 164.577 185.008 164.274 185.431C163.971 185.861 163.517 186.515 163.517 186.515C163.517 186.515 163.039 186.57 162.672 186.57C162.306 186.57 161.875 186.658 161.612 186.746C161.349 186.833 160.991 187.072 160.991 187.072V187.072Z" fill="white"/>
<path fill-rule="evenodd" clip-rule="evenodd" d="M270.406 122.975C270.446 123.097 270.488 123.3 270.57 123.584C270.61 123.828 270.692 124.195 270.773 124.683C270.855 125.13 270.936 125.697 271.017 126.388C271.098 127.079 271.097 127.892 271.097 128.827C271.097 132.119 270.773 135.615 270.082 139.192C269.391 142.809 268.375 146.508 267.075 150.166C265.774 153.824 264.147 157.441 262.278 161.018C260.367 164.595 258.213 168.008 255.815 171.219C253.417 174.43 250.776 177.437 247.89 180.16C245.045 182.883 241.998 185.24 238.706 187.272C239.559 183.817 240.452 180.16 241.428 176.218C242.403 172.275 243.419 168.212 244.557 164.026C245.655 159.799 246.874 155.49 248.174 151.1C249.434 146.67 250.857 142.281 252.32 137.891C252.32 137.891 252.157 137.687 251.873 137.24C251.548 136.834 251.183 136.265 250.655 135.615C250.126 134.964 249.557 134.193 248.907 133.38C248.257 132.567 247.605 131.712 246.914 130.9C246.264 130.087 245.614 129.316 245.045 128.625C244.435 127.893 243.907 127.325 243.501 126.878C242.241 130.739 241.062 134.722 239.924 138.786C238.786 142.851 237.73 146.914 236.755 150.857C235.739 154.84 234.843 158.659 234.071 162.358C233.258 166.097 232.609 169.511 232 172.641C231.431 175.811 230.982 178.616 230.697 181.055C230.372 183.493 230.25 185.444 230.25 186.866C230.25 187.435 230.292 187.924 230.414 188.33C230.577 188.777 230.699 189.102 230.861 189.305C231.024 189.63 231.308 190.078 231.714 190.647C232.08 191.216 232.568 191.825 233.096 192.394C233.624 192.963 234.194 193.531 234.804 193.978C235.413 194.425 235.983 194.629 236.511 194.629C236.633 194.629 236.755 194.629 236.998 194.589C237.242 194.549 237.527 194.425 237.811 194.303C240.006 193.409 242.485 191.988 245.33 190.078C248.135 188.167 251.061 185.849 254.11 183.086C257.117 180.322 260.124 177.193 263.172 173.697C266.18 170.202 268.985 166.382 271.586 162.318C274.187 158.213 276.463 153.904 278.414 149.311C280.365 144.759 281.828 140.005 282.722 135.127L270.406 122.975ZM289.021 146.549C288.777 146.549 288.411 146.833 287.964 147.484C287.517 148.134 287.072 148.864 286.624 149.758C286.177 150.612 285.81 151.508 285.444 152.442C285.119 153.377 284.957 154.107 284.957 154.717C284.957 154.839 285.201 155.083 285.648 155.408C286.095 155.733 286.665 156.059 287.315 156.425C287.966 156.75 288.615 157.075 289.346 157.359C290.037 157.644 290.648 157.766 291.136 157.807C291.298 157.807 291.542 157.643 291.827 157.277C292.071 156.952 292.354 156.506 292.68 155.977C292.964 155.449 293.289 154.879 293.614 154.27C293.939 153.619 294.223 153.051 294.467 152.482C294.711 151.913 294.915 151.426 295.118 150.978C295.281 150.531 295.402 150.288 295.402 150.166C295.402 150.003 295.158 149.717 294.711 149.311C294.182 148.904 293.613 148.499 292.963 148.093C292.272 147.686 291.582 147.319 290.85 146.994C290.119 146.669 289.509 146.549 289.021 146.549ZM310.816 162.024C310.785 162.015 310.765 162.013 310.765 162.031C310.684 162.071 310.644 162.073 310.603 162.073C309.1 162.52 307.677 163.129 306.336 163.86C304.954 164.592 303.776 165.323 302.719 166.055C301.459 166.909 300.319 167.844 299.222 168.779C297.108 170.689 295.485 172.558 294.265 174.387C293.954 174.844 293.661 175.289 293.387 175.725C293.239 175.852 293.175 175.906 293.005 176.055C292.355 176.623 291.662 177.231 290.89 177.882C290.077 178.573 289.265 179.264 288.412 179.955C287.558 180.646 286.706 181.297 285.933 181.866C285.161 182.435 284.428 182.923 283.818 183.248C283.249 183.614 282.763 183.817 282.478 183.817C282.316 183.817 282.235 183.736 282.235 183.574C282.235 183.249 282.315 182.76 282.518 182.11C282.721 181.419 282.966 180.687 283.291 179.793C283.576 178.899 283.901 177.963 284.308 176.947C284.674 175.931 285.078 174.916 285.444 173.9C285.85 172.883 286.217 171.949 286.542 170.974C286.908 170.039 287.192 169.226 287.395 168.535C287.476 168.373 287.517 168.169 287.517 168.088C287.558 167.966 287.559 167.844 287.559 167.763C287.559 167.356 287.273 166.868 286.704 166.299C286.135 165.73 285.444 165.201 284.753 164.673C284.021 164.145 283.29 163.698 282.64 163.373C281.99 163.007 281.544 162.804 281.422 162.804C281.3 162.804 281.055 163.17 280.689 163.942C280.323 164.674 279.917 165.648 279.429 166.868C278.941 168.087 278.413 169.469 277.803 171.054C277.193 172.598 276.667 174.225 276.098 175.851C275.569 177.476 275.041 179.061 274.594 180.646C274.147 182.231 273.74 183.612 273.455 184.832C273.455 185.36 273.698 185.849 274.104 186.377C274.511 186.906 274.999 187.393 275.608 187.799C276.177 188.246 276.788 188.613 277.398 188.898C278.048 189.182 278.577 189.303 278.984 189.303C279.674 189.303 280.447 189.099 281.422 188.652C282.357 188.205 283.332 187.636 284.43 186.905C285.527 186.173 286.623 185.401 287.761 184.466C288.678 183.745 289.574 183.003 290.449 182.271C290.401 182.467 290.354 182.663 290.323 182.841C290.16 183.775 290.077 184.346 290.077 184.508C290.077 185.077 290.242 185.687 290.567 186.256C290.851 186.825 291.257 187.352 291.663 187.799C292.151 188.246 292.557 188.613 293.045 188.898C293.492 189.182 293.859 189.303 294.143 189.303H294.387C294.468 189.303 294.548 189.303 294.711 189.221C295.849 188.855 297.15 188.288 298.491 187.516C299.873 186.744 301.215 185.888 302.597 184.953C303.938 184.019 305.238 183.044 306.458 181.988C307.717 180.931 308.775 179.916 309.669 178.94C309.344 180.038 309.098 180.931 308.936 181.662C308.773 182.394 308.653 183.003 308.612 183.532C308.572 184.06 308.53 184.467 308.53 184.792C308.571 185.117 308.57 185.361 308.57 185.565C308.57 186.174 308.733 186.701 309.058 187.148C309.383 187.636 309.83 188.043 310.318 188.369C310.806 188.734 311.334 189.019 311.943 189.181C312.553 189.384 313.081 189.507 313.569 189.507C314.301 189.507 315.156 189.263 316.132 188.816C317.066 188.328 318.122 187.758 319.179 187.026C320.276 186.336 321.374 185.482 322.512 184.588C323.61 183.653 324.747 182.719 325.803 181.784C326.86 180.849 327.836 179.956 328.771 179.062C329.706 178.209 330.517 177.435 331.168 176.825C330.842 176.5 330.519 176.135 330.153 175.729C329.787 175.322 329.462 174.956 329.218 174.712C328.893 175.038 328.404 175.443 327.794 176.012C327.185 176.581 326.454 177.192 325.682 177.842C324.909 178.492 324.097 179.184 323.243 179.875C322.43 180.566 321.618 181.175 320.887 181.744C320.114 182.273 319.462 182.72 318.893 183.126C318.284 183.451 317.879 183.653 317.635 183.653C317.473 183.653 317.39 183.573 317.39 183.37C317.39 183.085 317.431 182.639 317.471 182.07C317.512 181.541 317.594 180.849 317.797 180.037C317.96 179.224 318.245 178.29 318.57 177.233C318.936 176.176 319.422 174.996 320.032 173.696C320.032 173.371 319.95 172.924 319.706 172.396C319.462 171.827 319.179 171.218 318.853 170.608C318.528 169.999 318.163 169.428 317.757 168.941C317.391 168.412 317.025 168.048 316.74 167.844C316.659 167.804 316.619 167.804 316.619 167.844C316.578 167.844 316.577 167.884 316.577 167.924C316.048 168.818 315.399 169.673 314.667 170.526C313.936 171.38 313.204 172.151 312.513 172.801C311.7 173.614 310.886 174.347 309.992 175.038C309.057 175.851 308.124 176.623 307.23 177.354C306.336 178.086 305.481 178.735 304.75 179.264C303.978 179.792 303.328 180.241 302.719 180.566C302.15 180.85 301.661 181.011 301.255 181.011C300.889 181.011 300.686 180.808 300.686 180.32C300.686 179.67 301.052 178.654 301.824 177.191C302.637 175.727 304.018 174.022 306.05 172.03C306.903 171.217 307.798 170.363 308.814 169.51C309.667 168.778 310.644 168.006 311.742 167.193C312.839 166.38 314.017 165.649 315.277 164.959L315.359 164.877C315.399 164.877 315.399 164.836 315.359 164.755C315.237 164.592 315.033 164.388 314.668 164.104C314.342 163.86 313.936 163.617 313.489 163.333C313.042 163.089 312.554 162.844 312.107 162.6C311.66 162.356 311.254 162.195 310.929 162.073C310.888 162.052 310.846 162.032 310.816 162.022L310.816 162.024Z" fill="white"/>
<path d="M1139.43 264.297C1138.57 264.297 1137.77 264.068 1137.02 263.667L1129.4 259.138C1128.25 258.507 1128.82 258.278 1129.17 258.164C1130.72 257.648 1131 257.533 1132.61 256.616C1132.78 256.501 1133.01 256.559 1133.18 256.673L1139.03 260.17C1139.26 260.285 1139.55 260.285 1139.72 260.17L1162.59 246.928C1162.82 246.813 1162.93 246.583 1162.93 246.297V219.87C1162.93 219.583 1162.82 219.354 1162.59 219.239L1139.72 206.054C1139.49 205.939 1139.2 205.939 1139.03 206.054L1116.16 219.239C1115.93 219.353 1115.81 219.64 1115.81 219.869V246.297C1115.81 246.526 1115.93 246.812 1116.16 246.928L1122.4 250.539C1125.79 252.259 1127.91 250.252 1127.91 248.246V222.162C1127.91 221.819 1128.19 221.474 1128.6 221.474H1131.52C1131.86 221.474 1132.21 221.761 1132.21 222.162V248.246C1132.21 252.774 1129.74 255.412 1125.44 255.412C1124.12 255.412 1123.09 255.412 1120.17 253.978L1114.15 250.539C1112.66 249.679 1111.74 248.074 1111.74 246.354V219.927C1111.74 218.207 1112.66 216.602 1114.15 215.742L1137.02 202.5C1138.46 201.697 1140.41 201.697 1141.84 202.5L1164.71 215.742C1166.2 216.602 1167.12 218.207 1167.12 219.927V246.354C1167.12 248.074 1166.2 249.679 1164.71 250.539L1141.84 263.781C1141.09 264.126 1140.23 264.297 1139.43 264.297H1139.43ZM1146.48 246.125C1136.45 246.125 1134.39 241.539 1134.39 237.641C1134.39 237.297 1134.67 236.953 1135.07 236.953H1138.05C1138.4 236.953 1138.68 237.182 1138.68 237.526C1139.14 240.564 1140.46 242.055 1146.54 242.055C1151.35 242.055 1153.42 240.966 1153.42 238.386C1153.42 236.895 1152.84 235.807 1145.33 235.061C1139.09 234.43 1135.19 233.055 1135.19 228.067C1135.19 223.424 1139.09 220.672 1145.62 220.672C1152.96 220.672 1156.57 223.195 1157.03 228.697C1157.03 228.87 1156.97 229.041 1156.86 229.214C1156.74 229.328 1156.57 229.443 1156.4 229.443H1153.42C1153.13 229.443 1152.84 229.214 1152.79 228.927C1152.1 225.774 1150.32 224.742 1145.62 224.742C1140.35 224.742 1139.72 226.577 1139.72 227.952C1139.72 229.615 1140.46 230.131 1147.57 231.048C1154.62 231.965 1157.95 233.284 1157.95 238.214C1157.89 243.259 1153.76 246.125 1146.48 246.125Z" fill="#539E43"/>
<path d="M1068.46 160.938C1068.46 159.906 1067.89 158.931 1066.97 158.415L1042.66 144.428C1042.26 144.198 1041.8 144.084 1041.34 144.026H1041.12C1040.66 144.026 1040.2 144.198 1039.8 144.428L1015.49 158.415C1014.57 158.931 1014 159.906 1014 160.938L1014.06 198.544C1014.06 199.06 1014.34 199.576 1014.8 199.805C1015.26 200.092 1015.83 200.092 1016.24 199.805L1030.68 191.55C1031.6 191.034 1032.17 190.06 1032.17 189.028V171.429C1032.17 170.397 1032.75 169.422 1033.66 168.906L1039.8 165.352C1040.26 165.065 1040.77 164.95 1041.29 164.95C1041.8 164.95 1042.32 165.065 1042.72 165.352L1048.85 168.906C1049.77 169.422 1050.34 170.396 1050.34 171.429V189.028C1050.34 190.06 1050.92 191.034 1051.84 191.55L1066.28 199.805C1066.74 200.092 1067.31 200.092 1067.77 199.805C1068.23 199.576 1068.52 199.06 1068.52 198.544L1068.46 160.938ZM1185.29 109.172C1184.83 108.943 1184.26 108.943 1183.86 109.172C1183.4 109.459 1183.11 109.917 1183.11 110.433V147.696C1183.11 148.039 1182.94 148.383 1182.6 148.613C1182.25 148.784 1181.91 148.784 1181.57 148.613L1175.49 145.116C1175.04 144.862 1174.54 144.729 1174.03 144.729C1173.51 144.729 1173.01 144.862 1172.56 145.116L1148.26 159.161C1147.34 159.677 1146.77 160.651 1146.77 161.683V189.715C1146.77 190.747 1147.34 191.722 1148.26 192.238L1172.56 206.283C1173.01 206.537 1173.51 206.67 1174.03 206.67C1174.54 206.67 1175.04 206.537 1175.49 206.283L1199.8 192.238C1200.71 191.722 1201.29 190.748 1201.29 189.715V119.835C1201.29 118.746 1200.71 117.772 1199.8 117.255L1185.29 109.172H1185.29ZM1183.06 180.486C1183.06 180.773 1182.94 181.002 1182.71 181.117L1174.4 185.932C1174.28 185.989 1174.16 186.018 1174.03 186.018C1173.9 186.018 1173.77 185.989 1173.65 185.932L1165.34 181.117C1165.11 181.002 1165 180.715 1165 180.486V170.855C1165 170.569 1165.11 170.339 1165.34 170.225L1173.65 165.409C1173.77 165.352 1173.9 165.323 1174.03 165.323C1174.16 165.323 1174.28 165.352 1174.4 165.409L1182.71 170.225C1182.94 170.339 1183.06 170.626 1183.06 170.855V180.486ZM1266.18 170.626C1267.1 170.11 1267.61 169.136 1267.61 168.103V161.282C1267.61 160.25 1267.04 159.275 1266.18 158.76L1242.04 144.772C1241.6 144.519 1241.1 144.385 1240.58 144.385C1240.07 144.385 1239.57 144.519 1239.12 144.772L1214.81 158.817C1213.9 159.333 1213.32 160.307 1213.32 161.339V189.372C1213.32 190.403 1213.9 191.378 1214.81 191.894L1238.95 205.652C1239.87 206.168 1240.96 206.168 1241.82 205.652L1256.43 197.513C1256.89 197.283 1257.18 196.767 1257.18 196.251C1257.18 195.736 1256.89 195.22 1256.43 194.99L1232.01 180.945C1231.55 180.659 1231.27 180.2 1231.27 179.684V170.913C1231.27 170.397 1231.55 169.882 1232.01 169.652L1239.64 165.295C1239.86 165.155 1240.12 165.08 1240.38 165.08C1240.65 165.08 1240.9 165.155 1241.13 165.295L1248.75 169.652C1249.21 169.939 1249.5 170.397 1249.5 170.913V177.792C1249.5 178.308 1249.78 178.824 1250.24 179.053C1250.7 179.34 1251.27 179.34 1251.73 179.053L1266.18 170.626Z" fill="#333333"/>
<path d="M1240.21 169.308C1240.3 169.252 1240.4 169.222 1240.5 169.222C1240.6 169.222 1240.7 169.252 1240.78 169.308L1245.43 172.002C1245.6 172.116 1245.71 172.288 1245.71 172.518V177.907C1245.71 178.136 1245.6 178.308 1245.43 178.422L1240.78 181.117C1240.7 181.173 1240.6 181.203 1240.5 181.203C1240.4 181.203 1240.3 181.173 1240.21 181.117L1235.57 178.422C1235.39 178.308 1235.28 178.136 1235.28 177.907V172.518C1235.28 172.288 1235.39 172.116 1235.57 172.002L1240.21 169.308Z" fill="#539E43"/>
<mask id="mask0" mask-type="alpha" maskUnits="userSpaceOnUse" x="1080" y="144" width="55" height="63">
<path d="M1109.1 144.887C1108.66 144.633 1108.16 144.5 1107.64 144.5C1107.13 144.5 1106.63 144.633 1106.18 144.887L1082.05 158.816C1081.13 159.332 1080.61 160.307 1080.61 161.338V189.257C1080.61 190.288 1081.19 191.263 1082.05 191.779L1106.18 205.709C1106.63 205.963 1107.13 206.096 1107.64 206.096C1108.16 206.096 1108.66 205.963 1109.1 205.709L1133.24 191.779C1134.16 191.263 1134.67 190.288 1134.67 189.257V161.339C1134.67 160.307 1134.1 159.333 1133.24 158.817L1109.1 144.887Z" fill="white"/>
</mask>
<g mask="url(#mask0)">
<path d="M1109.1 144.887C1108.66 144.633 1108.16 144.5 1107.64 144.5C1107.13 144.5 1106.63 144.633 1106.18 144.887L1082.05 158.816C1081.13 159.332 1080.61 160.307 1080.61 161.338V189.257C1080.61 190.288 1081.19 191.263 1082.05 191.779L1106.18 205.709C1106.63 205.963 1107.13 206.096 1107.64 206.096C1108.16 206.096 1108.66 205.963 1109.1 205.709L1133.24 191.779C1134.16 191.263 1134.67 190.288 1134.67 189.257V161.339C1134.67 160.307 1134.1 159.333 1133.24 158.817L1109.1 144.887Z" fill="url(#paint0_linear)"/>
<path d="M1133.3 158.817L1109.05 144.887C1108.81 144.766 1108.56 144.67 1108.3 144.6L1081.13 191.149C1081.35 191.424 1081.63 191.657 1081.93 191.837L1106.18 205.768C1106.87 206.169 1107.67 206.284 1108.42 206.054L1133.93 159.391C1133.76 159.161 1133.53 158.989 1133.3 158.817V158.817Z" fill="url(#paint1_linear)"/>
<path fill-rule="evenodd" clip-rule="evenodd" d="M1133.35 191.779C1134.04 191.378 1134.56 190.69 1134.79 189.945L1108.19 144.543C1107.5 144.428 1106.75 144.485 1106.12 144.886L1082.05 158.76L1108.01 206.111C1108.39 206.049 1108.76 205.933 1109.1 205.767L1133.35 191.78L1133.35 191.779Z" fill="url(#paint2_linear)"/>
<path fill-rule="evenodd" clip-rule="evenodd" d="M1133.35 191.779L1109.16 205.71C1108.82 205.884 1108.45 206 1108.07 206.053L1108.53 206.914L1135.36 191.379V191.034L1134.67 189.888C1134.56 190.69 1134.04 191.378 1133.35 191.779Z" fill="url(#paint3_linear)"/>
<path fill-rule="evenodd" clip-rule="evenodd" d="M1133.35 191.779L1109.16 205.71C1108.82 205.884 1108.45 206 1108.07 206.053L1108.53 206.914L1135.36 191.379V191.034L1134.67 189.888C1134.56 190.69 1134.04 191.378 1133.35 191.779Z" fill="url(#paint4_linear)"/>
</g>
<path d="M132.85 273.25C131.267 273.25 129.992 272.733 129.025 271.7C128.058 270.65 127.508 269.25 127.375 267.5L127.35 266.5L127.375 265.5C127.508 263.767 128.05 262.375 129 261.325C129.967 260.275 131.25 259.75 132.85 259.75C134.583 259.75 135.933 260.325 136.9 261.475C137.883 262.625 138.375 264.2 138.375 266.2V266.575C138.375 266.742 138.317 266.875 138.2 266.975C138.1 267.075 137.967 267.125 137.8 267.125H128.9V267.375C128.933 268.158 129.108 268.892 129.425 269.575C129.758 270.242 130.217 270.783 130.8 271.2C131.383 271.6 132.067 271.8 132.85 271.8C133.767 271.8 134.508 271.625 135.075 271.275C135.658 270.908 136.075 270.542 136.325 270.175C136.475 269.975 136.583 269.85 136.65 269.8C136.733 269.75 136.875 269.725 137.075 269.725H137.475C137.625 269.725 137.75 269.767 137.85 269.85C137.95 269.933 138 270.042 138 270.175C138 270.525 137.775 270.95 137.325 271.45C136.892 271.933 136.283 272.358 135.5 272.725C134.717 273.075 133.833 273.25 132.85 273.25ZM136.85 265.725V265.625C136.85 264.342 136.483 263.283 135.75 262.45C135.033 261.617 134.067 261.2 132.85 261.2C131.633 261.2 130.667 261.617 129.95 262.45C129.25 263.283 128.9 264.342 128.9 265.625V265.725H136.85ZM145.797 273.25C144.714 273.25 143.797 273.067 143.047 272.7C142.314 272.333 141.756 271.917 141.372 271.45C141.006 270.983 140.822 270.608 140.822 270.325C140.822 270.175 140.881 270.058 140.997 269.975C141.114 269.875 141.239 269.825 141.372 269.825H141.747C141.864 269.825 141.956 269.85 142.022 269.9C142.106 269.933 142.197 270.017 142.297 270.15C142.664 270.667 143.106 271.075 143.622 271.375C144.156 271.658 144.881 271.8 145.797 271.8C146.831 271.8 147.664 271.608 148.297 271.225C148.931 270.825 149.247 270.258 149.247 269.525C149.247 269.075 149.114 268.708 148.847 268.425C148.597 268.142 148.181 267.9 147.597 267.7C147.031 267.483 146.181 267.242 145.047 266.975C143.564 266.642 142.547 266.183 141.997 265.6C141.464 265.017 141.197 264.275 141.197 263.375C141.197 262.758 141.364 262.175 141.697 261.625C142.047 261.075 142.556 260.625 143.222 260.275C143.906 259.925 144.722 259.75 145.672 259.75C146.672 259.75 147.514 259.925 148.197 260.275C148.897 260.608 149.414 261 149.747 261.45C150.097 261.9 150.272 262.267 150.272 262.55C150.272 262.7 150.214 262.825 150.097 262.925C149.997 263.008 149.872 263.05 149.722 263.05H149.347C149.114 263.05 148.931 262.942 148.797 262.725C148.464 262.225 148.081 261.85 147.647 261.6C147.231 261.333 146.572 261.2 145.672 261.2C144.706 261.2 143.972 261.4 143.472 261.8C142.972 262.2 142.722 262.725 142.722 263.375C142.722 263.775 142.822 264.108 143.022 264.375C143.222 264.642 143.597 264.892 144.147 265.125C144.697 265.342 145.497 265.567 146.547 265.8C148.097 266.15 149.189 266.617 149.822 267.2C150.456 267.783 150.772 268.558 150.772 269.525C150.772 270.208 150.581 270.833 150.197 271.4C149.814 271.967 149.247 272.417 148.497 272.75C147.747 273.083 146.847 273.25 145.797 273.25ZM154.552 273C154.385 273 154.252 272.95 154.152 272.85C154.052 272.75 154.002 272.617 154.002 272.45V255.8C154.002 255.633 154.052 255.5 154.152 255.4C154.252 255.3 154.385 255.25 154.552 255.25H154.977C155.144 255.25 155.277 255.3 155.377 255.4C155.477 255.5 155.527 255.633 155.527 255.8V272.45C155.527 272.617 155.477 272.75 155.377 272.85C155.277 272.95 155.144 273 154.977 273H154.552ZM159.867 257.325C159.701 257.325 159.567 257.275 159.467 257.175C159.367 257.075 159.317 256.942 159.317 256.775V255.825C159.317 255.658 159.367 255.525 159.467 255.425C159.567 255.308 159.701 255.25 159.867 255.25H160.817C160.984 255.25 161.117 255.308 161.217 255.425C161.334 255.525 161.392 255.658 161.392 255.825V256.775C161.392 256.942 161.334 257.075 161.217 257.175C161.117 257.275 160.984 257.325 160.817 257.325H159.867ZM160.142 273C159.976 273 159.842 272.95 159.742 272.85C159.642 272.75 159.592 272.617 159.592 272.45V260.55C159.592 260.383 159.642 260.25 159.742 260.15C159.842 260.05 159.976 260 160.142 260H160.567C160.734 260 160.867 260.05 160.967 260.15C161.067 260.25 161.117 260.383 161.117 260.55V272.45C161.117 272.617 161.067 272.75 160.967 272.85C160.867 272.95 160.734 273 160.567 273H160.142ZM165.709 273C165.542 273 165.409 272.95 165.309 272.85C165.209 272.75 165.159 272.617 165.159 272.45V260.55C165.159 260.383 165.209 260.25 165.309 260.15C165.409 260.05 165.542 260 165.709 260H166.134C166.3 260 166.434 260.05 166.534 260.15C166.634 260.25 166.684 260.383 166.684 260.55V261.725C167.184 261.075 167.75 260.583 168.384 260.25C169.034 259.917 169.867 259.75 170.884 259.75C172.517 259.75 173.775 260.275 174.659 261.325C175.542 262.358 175.984 263.7 175.984 265.35V272.45C175.984 272.617 175.934 272.75 175.834 272.85C175.734 272.95 175.6 273 175.434 273H175.009C174.842 273 174.709 272.95 174.609 272.85C174.509 272.75 174.459 272.617 174.459 272.45V265.475C174.459 264.125 174.125 263.075 173.459 262.325C172.809 261.575 171.867 261.2 170.634 261.2C169.434 261.2 168.475 261.583 167.759 262.35C167.042 263.1 166.684 264.142 166.684 265.475V272.45C166.684 272.617 166.634 272.75 166.534 272.85C166.434 272.95 166.3 273 166.134 273H165.709ZM184.085 273C182.851 273 181.976 272.633 181.46 271.9C180.943 271.15 180.685 270.125 180.685 268.825V261.45H178.735C178.568 261.45 178.435 261.4 178.335 261.3C178.235 261.2 178.185 261.067 178.185 260.9V260.55C178.185 260.383 178.235 260.25 178.335 260.15C178.435 260.05 178.568 260 178.735 260H180.685V255.8C180.685 255.633 180.735 255.5 180.835 255.4C180.935 255.3 181.068 255.25 181.235 255.25H181.66C181.826 255.25 181.96 255.3 182.06 255.4C182.16 255.5 182.21 255.633 182.21 255.8V260H185.31C185.476 260 185.61 260.05 185.71 260.15C185.81 260.25 185.86 260.383 185.86 260.55V260.9C185.86 261.067 185.81 261.2 185.71 261.3C185.61 261.4 185.476 261.45 185.31 261.45H182.21V268.725C182.21 269.658 182.36 270.367 182.66 270.85C182.976 271.317 183.493 271.55 184.21 271.55H185.56C185.726 271.55 185.86 271.6 185.96 271.7C186.06 271.8 186.11 271.933 186.11 272.1V272.45C186.11 272.617 186.06 272.75 185.96 272.85C185.86 272.95 185.726 273 185.56 273H184.085ZM188.776 266.225C188.609 266.225 188.476 266.175 188.376 266.075C188.276 265.975 188.226 265.842 188.226 265.675V265.325C188.226 265.158 188.276 265.025 188.376 264.925C188.476 264.825 188.609 264.775 188.776 264.775H196.151C196.318 264.775 196.451 264.825 196.551 264.925C196.651 265.025 196.701 265.158 196.701 265.325V265.675C196.701 265.842 196.651 265.975 196.551 266.075C196.451 266.175 196.318 266.225 196.151 266.225H188.776ZM205.509 273.25C203.775 273.25 202.434 272.75 201.484 271.75C200.534 270.733 200.034 269.317 199.984 267.5L199.959 266.5L199.984 265.5C200.034 263.683 200.534 262.275 201.484 261.275C202.434 260.258 203.775 259.75 205.509 259.75C206.609 259.75 207.542 259.95 208.309 260.35C209.092 260.733 209.675 261.233 210.059 261.85C210.442 262.45 210.65 263.075 210.684 263.725C210.7 263.875 210.65 264.008 210.534 264.125C210.417 264.225 210.284 264.275 210.134 264.275H209.784C209.617 264.275 209.492 264.242 209.409 264.175C209.342 264.092 209.267 263.95 209.184 263.75C208.85 262.833 208.384 262.183 207.784 261.8C207.184 261.4 206.425 261.2 205.509 261.2C204.309 261.2 203.35 261.567 202.634 262.3C201.934 263.017 201.559 264.125 201.509 265.625L201.484 266.5L201.509 267.375C201.559 268.875 201.934 269.992 202.634 270.725C203.35 271.442 204.309 271.8 205.509 271.8C206.425 271.8 207.184 271.608 207.784 271.225C208.384 270.825 208.85 270.167 209.184 269.25C209.267 269.05 209.342 268.917 209.409 268.85C209.492 268.767 209.617 268.725 209.784 268.725H210.134C210.284 268.725 210.417 268.783 210.534 268.9C210.65 269 210.7 269.125 210.684 269.275C210.65 269.925 210.442 270.558 210.059 271.175C209.675 271.775 209.092 272.275 208.309 272.675C207.542 273.058 206.609 273.25 205.509 273.25ZM218.937 273.25C217.204 273.25 215.854 272.725 214.887 271.675C213.937 270.608 213.437 269.233 213.387 267.55L213.362 266.5L213.387 265.45C213.437 263.767 213.937 262.4 214.887 261.35C215.854 260.283 217.204 259.75 218.937 259.75C220.67 259.75 222.012 260.283 222.962 261.35C223.929 262.4 224.437 263.767 224.487 265.45C224.504 265.617 224.512 265.967 224.512 266.5C224.512 267.033 224.504 267.383 224.487 267.55C224.437 269.233 223.929 270.608 222.962 271.675C222.012 272.725 220.67 273.25 218.937 273.25ZM218.937 271.8C220.12 271.8 221.07 271.425 221.787 270.675C222.52 269.908 222.912 268.825 222.962 267.425C222.979 267.258 222.987 266.95 222.987 266.5C222.987 266.05 222.979 265.742 222.962 265.575C222.912 264.175 222.52 263.1 221.787 262.35C221.07 261.583 220.12 261.2 218.937 261.2C217.754 261.2 216.795 261.583 216.062 262.35C215.345 263.1 214.962 264.175 214.912 265.575L214.887 266.5L214.912 267.425C214.962 268.825 215.345 269.908 216.062 270.675C216.795 271.425 217.754 271.8 218.937 271.8ZM228.477 273C228.311 273 228.177 272.95 228.077 272.85C227.977 272.75 227.927 272.617 227.927 272.45V260.55C227.927 260.383 227.977 260.25 228.077 260.15C228.177 260.05 228.311 260 228.477 260H228.902C229.069 260 229.202 260.05 229.302 260.15C229.402 260.25 229.452 260.383 229.452 260.55V261.725C229.952 261.075 230.519 260.583 231.152 260.25C231.802 259.917 232.636 259.75 233.652 259.75C235.286 259.75 236.544 260.275 237.427 261.325C238.311 262.358 238.752 263.7 238.752 265.35V272.45C238.752 272.617 238.702 272.75 238.602 272.85C238.502 272.95 238.369 273 238.202 273H237.777C237.611 273 237.477 272.95 237.377 272.85C237.277 272.75 237.227 272.617 237.227 272.45V265.475C237.227 264.125 236.894 263.075 236.227 262.325C235.577 261.575 234.636 261.2 233.402 261.2C232.202 261.2 231.244 261.583 230.527 262.35C229.811 263.1 229.452 264.142 229.452 265.475V272.45C229.452 272.617 229.402 272.75 229.302 272.85C229.202 272.95 229.069 273 228.902 273H228.477ZM244.229 273C244.062 273 243.929 272.95 243.829 272.85C243.729 272.75 243.679 272.617 243.679 272.45V261.45H241.454C241.287 261.45 241.154 261.4 241.054 261.3C240.954 261.2 240.904 261.067 240.904 260.9V260.55C240.904 260.383 240.954 260.25 241.054 260.15C241.154 260.05 241.287 260 241.454 260H243.679V258.575C243.679 257.308 243.954 256.317 244.504 255.6C245.054 254.867 246.037 254.5 247.454 254.5H250.229C250.395 254.5 250.529 254.55 250.629 254.65C250.729 254.75 250.779 254.883 250.779 255.05V255.4C250.779 255.567 250.729 255.7 250.629 255.8C250.529 255.9 250.395 255.95 250.229 255.95H247.454C246.604 255.95 246.012 256.175 245.679 256.625C245.362 257.058 245.204 257.75 245.204 258.7V260H250.229C250.395 260 250.529 260.05 250.629 260.15C250.729 260.25 250.779 260.383 250.779 260.55V272.45C250.779 272.617 250.729 272.75 250.629 272.85C250.529 272.95 250.395 273 250.229 273H249.804C249.637 273 249.504 272.95 249.404 272.85C249.304 272.75 249.254 272.617 249.254 272.45V261.45H245.204V272.45C245.204 272.617 245.154 272.75 245.054 272.85C244.954 272.95 244.82 273 244.654 273H244.229ZM259.682 278.5C258.382 278.5 257.34 278.275 256.557 277.825C255.773 277.375 255.223 276.858 254.907 276.275C254.607 275.708 254.457 275.208 254.457 274.775C254.457 274.625 254.507 274.5 254.607 274.4C254.723 274.3 254.857 274.25 255.007 274.25H255.357C255.507 274.25 255.623 274.283 255.707 274.35C255.807 274.433 255.89 274.575 255.957 274.775C256.473 276.292 257.673 277.05 259.557 277.05C260.99 277.05 262.048 276.75 262.732 276.15C263.415 275.567 263.757 274.517 263.757 273V271.275C262.79 272.592 261.39 273.25 259.557 273.25C257.757 273.25 256.423 272.667 255.557 271.5C254.707 270.317 254.257 268.883 254.207 267.2L254.182 266.5L254.207 265.8C254.257 264.117 254.707 262.692 255.557 261.525C256.423 260.342 257.757 259.75 259.557 259.75C261.373 259.75 262.773 260.408 263.757 261.725V260.575C263.757 260.408 263.807 260.275 263.907 260.175C264.007 260.058 264.14 260 264.307 260H264.707C264.873 260 265.007 260.058 265.107 260.175C265.223 260.275 265.282 260.408 265.282 260.575V272.75C265.282 274.533 264.865 275.933 264.032 276.95C263.198 277.983 261.748 278.5 259.682 278.5ZM259.707 271.8C261.023 271.8 262.015 271.367 262.682 270.5C263.348 269.617 263.707 268.583 263.757 267.4C263.773 267.233 263.782 266.933 263.782 266.5C263.782 266.067 263.773 265.767 263.757 265.6C263.707 264.417 263.348 263.392 262.682 262.525C262.015 261.642 261.023 261.2 259.707 261.2C258.357 261.2 257.365 261.633 256.732 262.5C256.115 263.35 255.782 264.45 255.732 265.8L255.707 266.5L255.732 267.2C255.782 268.55 256.115 269.658 256.732 270.525C257.365 271.375 258.357 271.8 259.707 271.8Z" fill="#A4A4F2"/>
<path d="M269.733 266.225C269.566 266.225 269.433 266.175 269.333 266.075C269.233 265.975 269.183 265.842 269.183 265.675V265.325C269.183 265.158 269.233 265.025 269.333 264.925C269.433 264.825 269.566 264.775 269.733 264.775H277.108C277.275 264.775 277.408 264.825 277.508 264.925C277.608 265.025 277.658 265.158 277.658 265.325V265.675C277.658 265.842 277.608 265.975 277.508 266.075C277.408 266.175 277.275 266.225 277.108 266.225H269.733ZM285.43 273C284.963 273 284.646 272.792 284.48 272.375L279.88 260.775L279.83 260.5C279.83 260.367 279.88 260.25 279.98 260.15C280.08 260.05 280.196 260 280.33 260H280.855C281.005 260 281.121 260.042 281.205 260.125C281.305 260.208 281.371 260.292 281.405 260.375L285.63 271.175L289.855 260.375C289.888 260.292 289.946 260.208 290.03 260.125C290.13 260.042 290.255 260 290.405 260H290.93C291.063 260 291.18 260.05 291.28 260.15C291.38 260.25 291.43 260.367 291.43 260.5L291.38 260.775L286.78 272.375C286.613 272.792 286.296 273 285.83 273H285.43ZM294.633 257.325C294.466 257.325 294.333 257.275 294.233 257.175C294.133 257.075 294.083 256.942 294.083 256.775V255.825C294.083 255.658 294.133 255.525 294.233 255.425C294.333 255.308 294.466 255.25 294.633 255.25H295.583C295.75 255.25 295.883 255.308 295.983 255.425C296.1 255.525 296.158 255.658 296.158 255.825V256.775C296.158 256.942 296.1 257.075 295.983 257.175C295.883 257.275 295.75 257.325 295.583 257.325H294.633ZM294.908 273C294.741 273 294.608 272.95 294.508 272.85C294.408 272.75 294.358 272.617 294.358 272.45V260.55C294.358 260.383 294.408 260.25 294.508 260.15C294.608 260.05 294.741 260 294.908 260H295.333C295.5 260 295.633 260.05 295.733 260.15C295.833 260.25 295.883 260.383 295.883 260.55V272.45C295.883 272.617 295.833 272.75 295.733 272.85C295.633 272.95 295.5 273 295.333 273H294.908ZM303.424 273.25C302.624 273.25 301.883 273.083 301.199 272.75C300.516 272.417 299.966 271.967 299.549 271.4C299.149 270.833 298.949 270.208 298.949 269.525C298.949 268.425 299.391 267.525 300.274 266.825C301.174 266.125 302.383 265.675 303.899 265.475L307.849 264.925V264.05C307.849 263.133 307.566 262.433 306.999 261.95C306.449 261.45 305.599 261.2 304.449 261.2C303.599 261.2 302.899 261.367 302.349 261.7C301.816 262.033 301.474 262.433 301.324 262.9C301.258 263.1 301.174 263.242 301.074 263.325C300.991 263.392 300.874 263.425 300.724 263.425H300.374C300.224 263.425 300.091 263.375 299.974 263.275C299.874 263.158 299.824 263.025 299.824 262.875C299.824 262.508 299.991 262.083 300.324 261.6C300.658 261.1 301.174 260.667 301.874 260.3C302.574 259.933 303.433 259.75 304.449 259.75C306.233 259.75 307.499 260.175 308.249 261.025C308.999 261.875 309.374 262.908 309.374 264.125V272.45C309.374 272.617 309.324 272.75 309.224 272.85C309.124 272.95 308.991 273 308.824 273H308.399C308.233 273 308.099 272.95 307.999 272.85C307.899 272.75 307.849 272.617 307.849 272.45V271.275C307.483 271.825 306.941 272.292 306.224 272.675C305.524 273.058 304.591 273.25 303.424 273.25ZM303.674 271.8C304.891 271.8 305.891 271.4 306.674 270.6C307.458 269.8 307.849 268.65 307.849 267.15V266.3L304.624 266.75C303.258 266.933 302.224 267.25 301.524 267.7C300.824 268.15 300.474 268.717 300.474 269.4C300.474 270.167 300.791 270.758 301.424 271.175C302.074 271.592 302.824 271.8 303.674 271.8ZM313.703 266.225C313.536 266.225 313.403 266.175 313.303 266.075C313.203 265.975 313.153 265.842 313.153 265.675V265.325C313.153 265.158 313.203 265.025 313.303 264.925C313.403 264.825 313.536 264.775 313.703 264.775H321.078C321.244 264.775 321.378 264.825 321.478 264.925C321.578 265.025 321.628 265.158 321.628 265.325V265.675C321.628 265.842 321.578 265.975 321.478 266.075C321.378 266.175 321.244 266.225 321.078 266.225H313.703ZM326.085 277.75C325.919 277.75 325.785 277.7 325.685 277.6C325.585 277.5 325.535 277.367 325.535 277.2V260.55C325.535 260.383 325.585 260.25 325.685 260.15C325.785 260.05 325.919 260 326.085 260H326.51C326.677 260 326.81 260.05 326.91 260.15C327.01 260.25 327.06 260.383 327.06 260.55V261.725C328.027 260.408 329.427 259.75 331.26 259.75C333.06 259.75 334.385 260.325 335.235 261.475C336.102 262.608 336.56 264.008 336.61 265.675C336.627 265.842 336.635 266.117 336.635 266.5C336.635 266.883 336.627 267.158 336.61 267.325C336.56 268.992 336.102 270.4 335.235 271.55C334.385 272.683 333.06 273.25 331.26 273.25C329.444 273.25 328.044 272.592 327.06 271.275V277.2C327.06 277.367 327.01 277.5 326.91 277.6C326.81 277.7 326.677 277.75 326.51 277.75H326.085ZM331.11 271.8C332.46 271.8 333.444 271.375 334.06 270.525C334.694 269.658 335.035 268.55 335.085 267.2C335.102 267.033 335.11 266.8 335.11 266.5C335.11 264.95 334.81 263.683 334.21 262.7C333.61 261.7 332.577 261.2 331.11 261.2C329.794 261.2 328.802 261.642 328.135 262.525C327.469 263.392 327.11 264.417 327.06 265.6L327.035 266.575L327.06 267.55C327.077 268.267 327.235 268.95 327.535 269.6C327.835 270.233 328.285 270.758 328.885 271.175C329.485 271.592 330.227 271.8 331.11 271.8ZM340.587 273C340.42 273 340.287 272.95 340.187 272.85C340.087 272.75 340.037 272.617 340.037 272.45V260.575C340.037 260.408 340.087 260.275 340.187 260.175C340.287 260.058 340.42 260 340.587 260H340.987C341.153 260 341.287 260.058 341.387 260.175C341.503 260.275 341.562 260.408 341.562 260.575V261.725C342.162 260.575 343.295 260 344.962 260H345.887C346.053 260 346.187 260.05 346.287 260.15C346.387 260.25 346.437 260.383 346.437 260.55V260.9C346.437 261.067 346.387 261.2 346.287 261.3C346.187 261.4 346.053 261.45 345.887 261.45H344.812C343.812 261.45 343.02 261.742 342.437 262.325C341.853 262.908 341.562 263.7 341.562 264.7V272.45C341.562 272.617 341.503 272.75 341.387 272.85C341.287 272.95 341.153 273 340.987 273H340.587ZM353.385 273.25C351.652 273.25 350.302 272.725 349.335 271.675C348.385 270.608 347.885 269.233 347.835 267.55L347.81 266.5L347.835 265.45C347.885 263.767 348.385 262.4 349.335 261.35C350.302 260.283 351.652 259.75 353.385 259.75C355.118 259.75 356.46 260.283 357.41 261.35C358.377 262.4 358.885 263.767 358.935 265.45C358.952 265.617 358.96 265.967 358.96 266.5C358.96 267.033 358.952 267.383 358.935 267.55C358.885 269.233 358.377 270.608 357.41 271.675C356.46 272.725 355.118 273.25 353.385 273.25ZM353.385 271.8C354.568 271.8 355.518 271.425 356.235 270.675C356.968 269.908 357.36 268.825 357.41 267.425C357.427 267.258 357.435 266.95 357.435 266.5C357.435 266.05 357.427 265.742 357.41 265.575C357.36 264.175 356.968 263.1 356.235 262.35C355.518 261.583 354.568 261.2 353.385 261.2C352.202 261.2 351.243 261.583 350.51 262.35C349.793 263.1 349.41 264.175 349.36 265.575L349.335 266.5L349.36 267.425C349.41 268.825 349.793 269.908 350.51 270.675C351.243 271.425 352.202 271.8 353.385 271.8ZM363.98 273C363.813 273 363.68 272.95 363.58 272.85C363.48 272.75 363.43 272.617 363.43 272.45V261.45H361.205C361.038 261.45 360.905 261.4 360.805 261.3C360.705 261.2 360.655 261.067 360.655 260.9V260.55C360.655 260.383 360.705 260.25 360.805 260.15C360.905 260.05 361.038 260 361.205 260H363.43V258.575C363.43 257.308 363.705 256.317 364.255 255.6C364.805 254.867 365.788 254.5 367.205 254.5H369.98C370.146 254.5 370.28 254.55 370.38 254.65C370.48 254.75 370.53 254.883 370.53 255.05V255.4C370.53 255.567 370.48 255.7 370.38 255.8C370.28 255.9 370.146 255.95 369.98 255.95H367.205C366.355 255.95 365.763 256.175 365.43 256.625C365.113 257.058 364.955 257.75 364.955 258.7V260H369.98C370.146 260 370.28 260.05 370.38 260.15C370.48 260.25 370.53 260.383 370.53 260.55V272.45C370.53 272.617 370.48 272.75 370.38 272.85C370.28 272.95 370.146 273 369.98 273H369.555C369.388 273 369.255 272.95 369.155 272.85C369.055 272.75 369.005 272.617 369.005 272.45V261.45H364.955V272.45C364.955 272.617 364.905 272.75 364.805 272.85C364.705 272.95 364.571 273 364.405 273H363.98ZM378.958 273C377.724 273 376.849 272.633 376.333 271.9C375.816 271.15 375.558 270.125 375.558 268.825V261.45H373.608C373.441 261.45 373.308 261.4 373.208 261.3C373.108 261.2 373.058 261.067 373.058 260.9V260.55C373.058 260.383 373.108 260.25 373.208 260.15C373.308 260.05 373.441 260 373.608 260H375.558V255.8C375.558 255.633 375.608 255.5 375.708 255.4C375.808 255.3 375.941 255.25 376.108 255.25H376.533C376.699 255.25 376.833 255.3 376.933 255.4C377.033 255.5 377.083 255.633 377.083 255.8V260H380.183C380.349 260 380.483 260.05 380.583 260.15C380.683 260.25 380.733 260.383 380.733 260.55V260.9C380.733 261.067 380.683 261.2 380.583 261.3C380.483 261.4 380.349 261.45 380.183 261.45H377.083V268.725C377.083 269.658 377.233 270.367 377.533 270.85C377.849 271.317 378.366 271.55 379.083 271.55H380.433C380.599 271.55 380.733 271.6 380.833 271.7C380.933 271.8 380.983 271.933 380.983 272.1V272.45C380.983 272.617 380.933 272.75 380.833 272.85C380.733 272.95 380.599 273 380.433 273H378.958Z" fill="white"/>
</g>
<defs>
<linearGradient id="paint0_linear" x1="1117.48" y1="155.271" x2="1091.02" y2="196.837" gradientUnits="userSpaceOnUse">
<stop stop-color="#41873F"/>
<stop offset="0.3288" stop-color="#418B3D"/>
<stop offset="0.6352" stop-color="#419637"/>
<stop offset="0.9319" stop-color="#3FA92D"/>
<stop offset="1" stop-color="#3FAE2A"/>
</linearGradient>
<linearGradient id="paint1_linear" x1="1103.98" y1="178.568" x2="1170.23" y2="142.574" gradientUnits="userSpaceOnUse">
<stop offset="0.1376" stop-color="#41873F"/>
<stop offset="0.4032" stop-color="#54A044"/>
<stop offset="0.7136" stop-color="#66B848"/>
<stop offset="0.9081" stop-color="#6CC04A"/>
</linearGradient>
<linearGradient id="paint2_linear" x1="1079.73" y1="175.299" x2="1135.58" y2="175.299" gradientUnits="userSpaceOnUse">
<stop offset="0.09192" stop-color="#6CC04A"/>
<stop offset="0.2864" stop-color="#66B848"/>
<stop offset="0.5968" stop-color="#54A044"/>
<stop offset="0.8624" stop-color="#41873F"/>
</linearGradient>
<linearGradient id="paint3_linear" x1="1079.73" y1="198.447" x2="1135.58" y2="198.447" gradientUnits="userSpaceOnUse">
<stop offset="0.09192" stop-color="#6CC04A"/>
<stop offset="0.2864" stop-color="#66B848"/>
<stop offset="0.5968" stop-color="#54A044"/>
<stop offset="0.8624" stop-color="#41873F"/>
</linearGradient>
<linearGradient id="paint4_linear" x1="1143.71" y1="153.951" x2="1129.57" y2="228.086" gradientUnits="userSpaceOnUse">
<stop stop-color="#41873F"/>
<stop offset="0.3288" stop-color="#418B3D"/>
<stop offset="0.6352" stop-color="#419637"/>
<stop offset="0.9319" stop-color="#3FA92D"/>
<stop offset="1" stop-color="#3FAE2A"/>
</linearGradient>
<clipPath id="clip0">
<rect width="1416.98" height="497.411" fill="white"/>
</clipPath>
</defs>
</svg>
